<svg xmlns="http://www.w3.org/2000/svg" width="985" height="836" viewBox="0 0 98
5 836">                                                                         <g>
<path d="M 58.24 813.03 C52.98,814.23 48.29,814.28 47.59,813.15 C47.31,812.69 48
.72,811.00 50.74,809.40 C52.76,807.81 57.58,803.78 61.45,800.46 C65.33,797.14 74.80,789.04 82.50,782.48 C106.49,762.01 139.25,729.33 158.13,707.00 C177.87,683.66 185.84,673.02 205.28,644.00 C217.59,625.61 219.51,622.49 232.58,599.50 C239.74,586.90 240.57,585.33 259.28,548.50 C272.04,523.39 284.16,500.39 293.52,483.50 C297.14,476.99 308.47,458.81 312.69,452.76 C314.51,450.15 316.00,447.79 316.00,447.50 C316.00,447.21 318.57,443.50 321.72,439.24 C349.15,402.09 379.52,371.79 415.19,345.96 C432.87,333.17 434.67,331.93 443.93,326.13 C448.64,323.18 454.75,319.30 457.50,317.51 C464.77,312.77 481.21,303.51 499.50,293.85 C515.97,285.16 521.31,282.50 538.50,274.48 C560.60,264.16 573.22,258.88 573.92,259.64 C574.24,259.99 573.85,260.50 573.06,260.78 C572.26,261.07 570.61,262.30 569.39,263.52 C567.20,265.71 545.40,281.00 544.47,281.00 C544.21,281.00 539.25,284.60 533.44,289.00 C527.63,293.40 522.69,297.00 522.45,297.00 C521.77,297.00 494.52,318.22 483.56,327.28 C467.25,340.76 461.66,345.48 458.50,348.43 C456.85,349.98 450.15,356.02 443.62,361.87 C415.24,387.26 373.21,433.47 357.25,456.82 C354.74,460.50 350.16,466.88 347.07,471.00 C324.87,500.63 299.34,546.76 283.99,585.00 C282.78,588.03 280.88,592.72 279.78,595.44 C276.90,602.56 268.06,627.88 267.02,632.00 C266.54,633.92 265.41,637.97 264.53,641.00 C263.64,644.03 262.00,650.10 260.89,654.50 C253.29,6
84.53 252.22,690.00 253.93,690.00 C254.96,690.00 272.60,674.86 285.00,663.34 C288.02,660.52 294.33,654.95 299.00,650.94 C303.67,646.94 309.75,641.54 312.50,638.95 C315.25,636.36 318.71,633.17 320.19,631.87 C328.16,624.86 349.24,605.68 363.39,592.55 C372.25,584.32 382.42,574.90 386.00,571.60 C396.80,561.65 427.74,531.16 440.35,518.03 C475.29,481.69 486.27,460.98 470.60,461.01 C465.08,461.02 454.51,462.77 449.00,464.60 C442.41,466.77 430.95,470.98 427.50,472.48 C422.81,474.53 420.00,475.71 413.00,478.57 C404.75,481.94 388.91,489.35 373.50,497.05 C362.33,502.63 359.00,503.86 359.00,502.42 C359.00,501.55 381.04,469.04 390.01,456.67 C410.17,428.88 439.36,396.87 462.94,376.70 C468.75,371.73 473.73,367.37 474.00,367.00 C476.66,363.41 516.18,336.13 528.02,329.70 C531.58,327.77 537.20,324.54 540.50,322.52 C548.08,317.88 584.72,299.85 598.50,293.97 C599.60,293.50 602.97,292.02 606.00,290.69 C609.03,289.36 614.88,286.81 619.00,285.03 C634.63,278.27 664.19,2
65.19 678.00,258.94 C700.02,248.97 735.81,230.20 750.50,220.91 C752.15,219.87 754.17,218.70 755.00,218.32 C762.36,214.88 807.10,182.91 822.28,170.25 C826.06,167.09 831.27,162.75 833.83,160.61 C836.40,158.47 846.41,149.34 856.08,140.32 C885.89,112.50 909.70,86.27 943.29,44.25 C946.48,40.26 949.52,37.00 950.04,37.00 C951.26,37.00 951.28,39.50 950.09,41.76 C949.58,42.72 948.19,45.97 946.98,49.00 C941.86,61.87 929.79,86.23 922.85,97.71 C912.96,114.08 907.35,122.85 902.83,129.00 C890.74,145.45 888.00,149.07 880.50,158.47 C865.62,177.14 823.04,218.14 800.42,235.58 C788.62,244.68 779.31,251.70 776.61,253.53 C775.02,254.62 772.47,256.40 770.95,257.50 C759.76,265.58 748.28,272.99 722.50,288.77 C717.55,291.80 711.92,295.28 710.00,296.51 C705.94,299.10 698.70,303.07 684.04,310.76 C678.29,313.77 671.99,317.23 670.04,318.43 C668.09,319.64 655.83,325.90 642.79,332.34 C629.75,338.79 618.81,344.50 618.48,345.03 C618.15,345.56 617.22,346.00 616.41,346.00 C614.47,346.00 566.65,369.95 558.50,375.00 C556.85,376.03 553.90,377.74 551.94,378.82 C532.24,389.63 520.92,400.42 519.41,409.81 C517.63,420.95 531.09,434.03 547.50,437.11 C554.95,438.50 574.74,437.69 585.00,435.56 C611.77,430.01 657.90,410.67 695.00,389.44 C701.33,385.82 708.97,381.47 712.00,379.77 C715.03,378.08 720.25,374.96 723.61,372.84 C726.97,370.73 729.94,369.00 730.21,369.00 C730.70,369.00 750.71,356.10 756.50,352.06 C763.97,346.84 771.85,342.00 772.88,342.00 C773.49,342.00 774.00,341.64 774.00,341.19 C774.00,340.37 777.68,337.63 791.03,328.50 C795.17,3
25.67 806.87,317.06 817.03,309.37 C843.76,289.14 845.45,287.83 846.00,287.01 C846.94,285.61 870.49,267.16 870.87,267.53 C871.07,267.74 869.50,270.28 867.37,273.18 C865.24,276.08 863.59,278.69 863.69,278.97 C863.95,279.68 853.94,292.26 848.15,298.51 C845.59,301.27 840.58,306.90 837.00,311.01 C829.44,319.71 793.80,354.82 780.08,367.08 C767.88,377.98 732.59,407.00 731.54,407.00 C731.28,407.00 726.84,410.26 721.68,414.25 C716.53,418.24 711.45,422.06 710.40,422.74 C697.72,430.98 685.73,438.83 682.50,441.02 C672.04,448.09 638.95,465.53 626.00,470.80 C611.11,476.85 596.36,481.94 589.50,483.38 C585.65,484.20 579.12,485.57 575.00,486.44 C566.56,488.22 549.22,488.48 538.50,486.98 C534.65,486.44 527.78,484.81 523.24,483.35 C518.69,481.89 514.81,480.88 514.61,481.10 C514.41,481.32 510.49,488.25 505.91,496.50 C498.34,510.13 494.35,516.39 477.21,541.50 C470.66,551.11 461.42,563.04 451.85,574.24 C447.98,578.79 442.95,584.75 440.69,587.50 C430.29,600.14 386.04,6
42.23 371.29,653.52 C365.69,657.80 364.65,659.51 368.25,658.51 C371.02,657.74 393.24,649.31 397.87,647.27 C399.73,646.46 402.43,645.42 403.87,644.97 C405.32,644.53 412.35,641.84 419.50,639.01 C426.65,636.18 434.08,633.40 436.00,632.83 C437.92,632.26 439.95,631.47 440.50,631.07 C441.05,630.68 446.45,628.43 452.50,626.09 C465.77,620.94 472.82,618.17 475.50,617.07 C477.85,616.09 488.40,612.06 498.50,608.27 C509.22,604.25 515.07,601.94 519.50,599.98 C528.73,595.88 534.47,594.75 533.40,597.25 C532.89,598.44 529.89,600.83 513.45,613.20 C509.57,616.11 503.95,620.39 500.95,622.70 C495.28,627.07 474.71,642.30 469.50,646.01 C467.85,647.18 463.31,650.47 459.41,653.32 C455.51,656.17 446.38,662.55 439.13,667.50 C409.41,687.77 386.68,701.78 353.50,720.28 C340.99,727.26 314.37,740.46 296.50,748.54 C272.04,759.61 271.15,760.00 270.46,760.00 C270.10,760.00 268.38,760.63 266.65,761.40 C263.97,762.59 252.47,766.91 230.50,774.98 C227.75,775.99 221.45,778.03 216.50,7
79.51 C211.55,780.99 204.12,783.24 200.00,784.51 C183.09,789.69 178.35,791.00 176.47,791.01 C175.39,791.01 173.21,791.68 171.64,792.51 C170.06,793.33 167.48,794.00 165.91,794.00 C164.33,794.00 161.34,794.65 159.27,795.45 C155.69,796.83 149.03,798.31 139.00,799.97 C136.52,800.37 128.88,801.84 122.00,803.23 C107.67,806.12 94.08,808.24 75.50,810.48 C68.35,811.35 60.58,812.49 58.24,813.03 Z" fill="#ffffff"/>                                                                      <path d="M 857.14 277.79 C861.07,274.58 865.57,270.73 868.15,268.36 C874.40,262.
61 875.00,262.26 875.00,264.35 C875.00,266.14 859.94,285.38 849.88,296.60 C855.74,290.00 863.93,279.61 863.69,278.97 C863.59,278.69 865.24,276.08 867.37,273.18 C869.50,270.28 871.07,267.74 870.87,267.53 C870.67,267.33 863.66,272.65 857.14,2
77.79 ZM 540.66 273.48 C545.43,271.25 549.61,269.32 551.50,268.48 C553.15,267.74 559.67,264.83 566.00,262.00 C572.33,259.18 578.06,256.63 578.75,256.33 C579.44,256.03 580.00,256.26 580.00,256.84 C580.00,258.17 575.00,261.93 568.50,265.48 C565.98,266.86 560.38,270.43 555.54,273.72 C561.66,269.45 568.24,264.67 569.39,263.52 C570.61,262.30 572.26,261.07 573.06,260.78 C573.85,260.50 574.24,259.99 573.92,259.64 C573.24,258.90 561.42,263.82 540.66,273.48 ZM 524.69 597.85 C525.45,597.55 526.24,597.24 527.00,596.95 C530.03,595.79 533.98,594.15 535.79,593.29 C537.59,592.44 539.39,592.06 539.78,592.45 C540.51,593.18 534.19,598.93 532.60,598.97 C532.30,598.98 531.27,599.62 529.95,600.58 C532.38,598.62 533.16,597.80 533.40,597.25 C534.25,595.26 530.79,595.57 524.69,597.85 ZM 492.58 297.53 C503.61,291.58 514.66,285.81 522.00,282.28 C523.46,281.57 525.33,280.68 527.42,279.70 C517.92,284.22 511.83,287.34 499.50,293.85 C497.16,295.09 494.85,296.32 492.58,297.53 ZM 526.61 603.22 C524.28,605.12 521.20,607.47 519.30,608.79 C522.34,606.49 524.7
3,604.67 526.61,603.22 ZM 482.64 636.39 C477.26,640.38 472.39,643.95 469.50,646.01 C471.78,644.38 477.01,640.55 482.64,636.39 ZM 519.50 599.98 C517.84,600.71 515.98,601.50 513.74,602.41 C516.06,601.47 517.92,600.67 519.50,599.96 C519.84,599.80 520.41,599.57 521.11,599.28 C520.59,599.50 520.05,599.73 519.50,599.98 ZM 544.63 280.95 C544.57,280.98 544.52,281.00 544.50,281.00 C544.22,281.00 539.25,284.60 533.44,289.00 C539.25,284.60 544.21,281.00 544.47,281.00 C544.50,281.00 544.56,280.98 544.63,280.95 ZM 846.00 287.01 C845.81,287.30 845.49,287.63 844.06,288.78 C845.49,287.63 845.81,287.29 846.00,287.01 C846.01,286.99 846.03,286.97 846.05,286.95 Z" fill="#ffffff"/>                                             <path d="M 857.14 277.79 C856.69,278.14 856.25,278.49 855.81,278.84 C860.62,274.
98 864.50,271.57 864.51,271.20 C864.52,270.06 874.61,261.00 875.85,261.00 C877.27,261.00 877.34,262.68 875.98,264.29 C875.43,264.96 872.84,268.29 870.23,271.70 C870.00,272.00 869.77,272.31 869.53,272.62 C872.80,268.26 875.00,265.04 875.00,2
64.35 C875.00,262.26 874.40,262.61 868.15,268.36 C865.57,270.73 861.07,274.58 857.14,277.79 ZM 571.98 259.34 C574.51,258.10 576.38,257.09 576.87,256.66 C579.45,254.41 583.00,253.61 583.00,255.29 C583.00,256.43 570.37,265.14 567.69,265.94 C567.98,265.77 568.26,265.62 568.50,265.48 C575.00,261.93 580.00,258.17 580.00,256.84 C580.00,256.26 579.44,256.03 578.75,256.33 C578.29,256.53 575.60,257.72 571.98,259.34 ZM 540.66 273.48 C534.18,276.50 530.61,278.18 527.42,279.70 C525.33,280.68 523.46,281.57 522.00,282.28 C530.27,278.30 537.56,274.86 544.75,271.57 C543.47,272.17 542.09,272.81 540.66,273.48 ZM 555.31 273.88 L 555.54 273.72 C555.65,273.65 555.76,273.57 555.87,273.50 C555.68,273.63 555.50,273.76 555.31,273.88 Z" fill="#ffffff"/>                                                      <path d="M 58.24 813.03 C60.58,812.49 68.35,811.35 75.50,810.48 C94.08,808.24 107.67,806.12 122.00,803.23 C128.88,801.84 136.52,800.37 139.00,799.97 C149.03,798.31 155.69,796.83 159.27,795.45 C161.34,794.65 164.33,794.00 165.91,794.00 C167.48,794.00 170.06,793.33 171.64,792.51 C173.21,791.68 175.39,791.01 176.47,791.01 C178.35,791.00 183.09,789.69 200.00,784.51 C204.12,783.24 211.55,780.99 216.50,779.51 C221.45,778.03 227.75,775.99 230.50,774.98 C252.47,766.91 263.97,762.59 266.65,761.40 C268.38,760.63 270.10,760.00 270.46,760.00 C271.15,760.00 272.04,759.61 296.50,748.54 C314.37,740.46 340.99,727.26 353.50,720.28 C386.68,701.78 409.41,687.77 439.13,667.50 C446.38,662.55 455.51,656.17 459.41,653.32 C463.31,650.47 467.85,647.18 469.50,646.01 C476.73,640.87 496.32,626.25 505.42,619.19 C510.88,614.96 516.98,610.38 518.99,609.00 C521.00,607.62 524.69,604.81 527.18,602.75 C529.67,600.69 532.11,598.99 532.60,598.97 C534.19,598.93 540.51,593.18 539.78,592.45 C539.39,592.06 537.59,5
92.44 535.79,593.29 C533.98,594.15 530.03,595.79 527.00,596.95 C523.97,598.11 520.60,599.46 519.50,599.96 C515.43,601.80 509.48,604.16 498.50,608.27 C488.40,612.06 477.85,616.09 475.50,617.07 C472.82,618.17 465.77,620.94 452.50,626.09 C446.45,628.43 441.05,630.68 440.50,631.07 C439.95,631.47 437.92,632.26 436.00,632.83 C434.08,633.40 426.65,636.18 419.50,639.01 C412.35,641.84 405.32,644.53 403.87,644.97 C402.43,645.42 399.73,646.46 397.87,647.27 C393.24,649.31 371.02,657.74 368.25,658.51 C364.65,659.51 365.69,657.80 371.29,653.52 C386.04,642.23 430.29,600.14 440.69,587.50 C442.95,584.75 447.98,578.79 451.85,574.24 C461.42,563.04 470.66,551.11 477.21,541.50 C494.35,516.39 498.34,510.13 505.91,496.50 C510.49,488.25 514.41,481.32 514.61,481.10 C514.81,480.88 518.69,481.89 523.24,483.35 C527.78,484.81 534.65,486.44 538.50,486.98 C549.22,488.48 566.56,488.22 575.00,486.44 C579.12,485.57 585.65,484.20 589.50,483.38 C596.36,481.94 611.11,476.85 626.00,4
70.80 C638.95,465.53 672.04,448.09 682.50,441.02 C685.73,438.83 697.72,430.98 710.40,422.74 C711.45,422.06 716.53,418.24 721.68,414.25 C726.84,410.26 731.28,407.00 731.54,407.00 C732.59,407.00 767.88,377.98 780.08,367.08 C793.80,354.82 829.44,319.71 837.00,311.01 C840.58,306.90 845.59,301.27 848.14,298.51 C853.32,292.90 863.09,281.06 870.23,271.70 C872.84,268.29 875.43,264.96 875.98,264.29 C877.34,262.68 877.27,261.00 875.85,261.00 C874.61,261.00 864.52,270.06 864.51,271.20 C864.50,271.58 860.45,275.13 855.50,279.09 C850.55,283.05 846.28,286.62 846.00,287.02 C845.45,287.84 843.69,289.19 817.03,309.37 C806.87,317.06 795.17,325.67 791.03,328.50 C777.68,337.63 774.00,340.37 774.00,341.19 C774.00,341.64 773.49,342.00 772.88,342.00 C771.85,342.00 763.97,346.84 756.50,352.06 C750.71,356.10 730.70,369.00 730.21,369.00 C729.94,369.00 726.97,370.73 723.61,372.84 C720.25,374.96 715.03,378.08 712.00,379.77 C708.97,381.47 701.33,385.82 695.00,389.44 C657.90,410.67 611.77,430.01 585.00,435.56 C574.74,437.69 554.95,438.50 547.50,437.11 C531.09,434.03 517.63,420.95 519.41,409.81 C520.92,400.42 532.24,389.63 551.94,378.82 C553.90,377.74 556.85,376.03 558.50,375.00 C566.65,369.95 614.47,346.00 616.41,346.00 C617.22,346.00 618.15,345.56 618.48,345.03 C618.81,344.50 629.75,338.79 642.79,332.34 C655.83,325.90 668.09,319.64 670.04,318.43 C671.99,317.23 678.29,313.77 684.04,310.76 C698.70,303.07 705.94,299.10 710.00,296.51 C711.92,295.28 717.55,291.80 722.50,288.77 C748.28,272.99 759.76,265.58 770.95,257.50 C772.47,2
56.40 775.02,254.62 776.61,253.53 C779.31,251.70 788.62,244.68 800.42,235.58 C823.04,218.14 865.62,177.14 880.50,158.47 C888.00,149.07 890.74,145.45 902.83,129.00 C907.35,122.85 912.96,114.08 922.85,97.71 C929.79,86.23 941.86,61.87 946.98,49.00 C948.19,45.97 949.58,42.72 950.09,41.76 C951.28,39.50 951.26,37.00 950.04,37.00 C949.52,37.00 946.48,40.26 943.29,44.25 C909.70,86.27 885.89,112.50 856.08,140.32 C846.41,149.34 836.40,158.47 833.83,160.61 C831.27,162.75 826.06,167.09 822.28,170.25 C807.10,182.91 762.36,214.88 755.00,218.32 C754.17,218.70 752.15,219.87 750.50,220.91 C735.81,230.20 700.02,248.97 678.00,258.94 C664.19,265.19 634.63,278.27 619.00,285.03 C614.88,286.81 609.03,289.36 606.00,290.69 C602.97,292.02 599.60,293.50 598.50,293.97 C584.72,299.85 548.08,317.88 540.50,322.52 C537.20,324.54 531.58,327.77 528.02,329.70 C516.18,336.13 476.66,363.41 474.00,367.00 C473.73,367.37 468.75,371.73 462.94,376.70 C439.36,396.87 410.17,428.88 390.01,4
56.67 C381.04,469.04 359.00,501.55 359.00,502.42 C359.00,503.86 362.33,502.63 373.50,497.05 C388.91,489.35 404.75,481.94 413.00,478.57 C420.00,475.71 422.81,474.53 427.50,472.48 C430.95,470.98 442.41,466.77 449.00,464.60 C454.51,462.77 465.08,461.02 470.60,461.01 C486.27,460.98 475.29,481.69 440.35,518.03 C427.74,531.16 396.80,561.65 386.00,571.60 C382.42,574.90 372.25,584.32 363.39,592.55 C349.24,605.68 328.16,624.86 320.19,631.87 C318.71,633.17 315.25,636.36 312.50,638.95 C309.75,641.54 303.67,646.94 299.00,650.94 C294.33,654.95 288.02,660.52 285.00,663.34 C272.60,674.86 254.96,690.00 253.93,690.00 C252.22,690.00 253.29,684.53 260.89,654.50 C262.00,650.10 263.64,644.03 264.53,641.00 C265.41,637.97 266.54,633.92 267.02,632.00 C268.06,627.88 276.90,602.56 279.78,595.44 C280.88,592.72 282.78,588.03 283.99,585.00 C299.34,546.76 324.87,500.63 347.07,471.00 C350.16,466.88 354.74,460.50 357.25,456.82 C373.21,433.47 415.24,387.26 443.62,361.87 C450.15,356.02 456.85,349.98 458.50,348.43 C461.66,345.48 467.25,340.76 483.56,327.28 C494.52,318.22 521.77,297.00 522.45,297.00 C522.69,297.00 527.63,293.40 533.44,289.00 C539.25,284.60 544.21,281.00 544.47,281.00 C544.74,281.00 549.86,277.62 555.87,273.50 C561.88,269.38 567.05,266.00 567.37,266.00 C569.12,266.00 583.00,256.48 583.00,255.29 C583.00,253.61 579.45,254.41 576.87,256.66 C575.98,257.45 570.58,260.12 564.87,262.60 C550.05,269.05 537.81,274.67 522.00,282.28 C504.95,290.49 467.94,310.70 457.50,317.51 C454.75,319.30 448.64,323.18 443.93,326.13 C434.67,3
31.93 432.87,333.17 415.19,345.96 C379.52,371.79 349.15,402.09 321.72,439.24 C318.57,443.50 316.00,447.21 316.00,447.50 C316.00,447.79 314.51,450.15 312.69,452.76 C308.47,458.81 297.14,476.99 293.52,483.50 C284.16,500.39 272.04,523.39 259.28,548.50 C240.57,585.33 239.74,586.90 232.58,599.50 C219.51,622.49 217.59,625.61 205.28,644.00 C185.84,673.02 177.87,683.66 158.13,707.00 C139.25,729.33 106.49,762.01 82.50,782.48 C74.80,789.04 65.33,797.14 61.45,800.46 C57.58,803.78 52.76,807.81 50.74,809.40 C48.72,811.00 47.31,812.69 47.59,813.15 C48.29,814.28 52.98,814.23 58.24,813.03 Z" fill="#ffffff"/>                                </g>


</svg>
