<svg width="1200" height="420" viewBox="0 0 1200 420" fill="none" xmlns="http://www.w3.org/2000/svg">
  <defs>
    <linearGradient id="bg" x1="0" y1="0" x2="1200" y2="420" gradientUnits="userSpaceOnUse">
      <stop stop-color="#07111f"/>
      <stop offset="0.5" stop-color="#0c1829"/>
      <stop offset="1" stop-color="#111827"/>
    </linearGradient>
    <linearGradient id="accent" x1="176" y1="118" x2="1012" y2="304" gradientUnits="userSpaceOnUse">
      <stop stop-color="#7dd3fc"/>
      <stop offset="0.45" stop-color="#a78bfa"/>
      <stop offset="1" stop-color="#f59e0b"/>
    </linearGradient>
    <linearGradient id="line" x1="0" y1="0" x2="1" y2="1">
      <stop stop-color="#7dd3fc" stop-opacity="0.8"/>
      <stop offset="1" stop-color="#a78bfa" stop-opacity="0.1"/>
    </linearGradient>
    <filter id="blurGlow" x="-20%" y="-20%" width="140%" height="140%">
      <feGaussianBlur stdDeviation="16" result="blur"/>
      <feMerge>
        <feMergeNode in="blur"/>
        <feMergeNode in="SourceGraphic"/>
      </feMerge>
    </filter>
    <filter id="softGlow" x="-30%" y="-30%" width="160%" height="160%">
      <feGaussianBlur stdDeviation="28" result="glow"/>
      <feColorMatrix in="glow" type="matrix" values="1 0 0 0 0  0 1 0 0 0  0 0 1 0 0  0 0 0 0.32 0"/>
    </filter>
  </defs>

  <rect width="1200" height="420" rx="28" fill="url(#bg)"/>

  <g opacity="0.28">
    <path d="M0 96H1200" stroke="url(#line)"/>
    <path d="M0 160H1200" stroke="url(#line)"/>
    <path d="M0 224H1200" stroke="url(#line)"/>
    <path d="M0 288H1200" stroke="url(#line)"/>
    <path d="M180 0V420" stroke="url(#line)"/>
    <path d="M360 0V420" stroke="url(#line)"/>
    <path d="M540 0V420" stroke="url(#line)"/>
    <path d="M720 0V420" stroke="url(#line)"/>
    <path d="M900 0V420" stroke="url(#line)"/>
  </g>

  <g filter="url(#softGlow)">
    <circle cx="248" cy="150" r="74" fill="#7dd3fc" opacity="0.18">
      <animate attributeName="r" values="74;84;74" dur="6s" repeatCount="indefinite"/>
      <animate attributeName="opacity" values="0.12;0.24;0.12" dur="6s" repeatCount="indefinite"/>
    </circle>
    <circle cx="976" cy="286" r="84" fill="#a78bfa" opacity="0.18">
      <animate attributeName="r" values="84;96;84" dur="8s" repeatCount="indefinite"/>
      <animate attributeName="opacity" values="0.1;0.22;0.1" dur="8s" repeatCount="indefinite"/>
    </circle>
  </g>

  <g opacity="0.85">
    <path d="M143 300C212 235 250 178 328 155C405 132 515 141 603 164C704 190 762 221 831 219C910 216 970 184 1058 116" stroke="url(#accent)" stroke-width="3" stroke-linecap="round">
      <animate attributeName="stroke-dasharray" values="1 10;160 10;1 10" dur="10s" repeatCount="indefinite"/>
    </path>
    <circle cx="328" cy="155" r="6" fill="#7dd3fc">
      <animate attributeName="r" values="6;9;6" dur="4s" repeatCount="indefinite"/>
    </circle>
    <circle cx="603" cy="164" r="6" fill="#a78bfa">
      <animate attributeName="r" values="6;10;6" dur="5s" repeatCount="indefinite"/>
    </circle>
    <circle cx="831" cy="219" r="6" fill="#f59e0b">
      <animate attributeName="r" values="6;9;6" dur="3.8s" repeatCount="indefinite"/>
    </circle>
  </g>

  <g transform="translate(92 86)">
    <path d="M92 0L142 62L186 24L172 96L238 124L166 136L170 214L116 160L54 214L58 136L0 124L60 96L46 24L92 0Z" fill="#0f172a" stroke="url(#accent)" stroke-width="4"/>
    <ellipse cx="76" cy="108" rx="22" ry="24" fill="#e2e8f0"/>
    <ellipse cx="158" cy="108" rx="22" ry="24" fill="#e2e8f0"/>
    <circle cx="76" cy="108" r="9" fill="#111827">
      <animate attributeName="cy" values="108;108;111;108" dur="5s" repeatCount="indefinite"/>
    </circle>
    <circle cx="158" cy="108" r="9" fill="#111827">
      <animate attributeName="cy" values="108;108;111;108" dur="5s" repeatCount="indefinite"/>
    </circle>
    <path d="M107 138L116 150L127 138" stroke="#f59e0b" stroke-width="6" stroke-linecap="round" stroke-linejoin="round"/>
    <path d="M54 98H98" stroke="#7dd3fc" stroke-width="3" opacity="0.65">
      <animate attributeName="opacity" values="0.3;0.9;0.3" dur="3.2s" repeatCount="indefinite"/>
    </path>
    <path d="M136 98H180" stroke="#a78bfa" stroke-width="3" opacity="0.65">
      <animate attributeName="opacity" values="0.85;0.25;0.85" dur="3.2s" repeatCount="indefinite"/>
    </path>
  </g>

  <g transform="translate(384 118)">
    <text x="0" y="0" fill="#e5eefc" font-family="Segoe UI, Arial, sans-serif" font-size="74" font-weight="700" letter-spacing="10">WHITEOWL</text>
    <text x="2" y="46" fill="#7dd3fc" font-family="Segoe UI, Arial, sans-serif" font-size="18" font-weight="600" letter-spacing="4">LOCAL-FIRST AI TRADING PANEL</text>
    <text x="0" y="106" fill="#cbd5e1" font-family="Segoe UI, Arial, sans-serif" font-size="24" font-weight="400">Solana memecoin operations, live market intel, agent chat,</text>
    <text x="0" y="140" fill="#cbd5e1" font-family="Segoe UI, Arial, sans-serif" font-size="24" font-weight="400">wallet workflows, browser automation, and autonomous trading.</text>
    <g transform="translate(0 186)">
      <rect width="166" height="42" rx="21" fill="#0f172a" stroke="#7dd3fc" stroke-opacity="0.45"/>
      <rect x="182" width="178" height="42" rx="21" fill="#0f172a" stroke="#a78bfa" stroke-opacity="0.45"/>
      <rect x="376" width="150" height="42" rx="21" fill="#0f172a" stroke="#f59e0b" stroke-opacity="0.45"/>
      <text x="26" y="27" fill="#ecfeff" font-family="Segoe UI, Arial, sans-serif" font-size="16" font-weight="700">29 Skills</text>
      <text x="208" y="27" fill="#f5f3ff" font-family="Segoe UI, Arial, sans-serif" font-size="16" font-weight="700">208 Tools</text>
      <text x="405" y="27" fill="#fff7ed" font-family="Segoe UI, Arial, sans-serif" font-size="16" font-weight="700">Local Data</text>
    </g>
  </g>

  <g opacity="0.65">
    <circle cx="1080" cy="82" r="3" fill="#7dd3fc">
      <animate attributeName="opacity" values="0.15;1;0.15" dur="2.2s" repeatCount="indefinite"/>
    </circle>
    <circle cx="1122" cy="122" r="3" fill="#f59e0b">
      <animate attributeName="opacity" values="1;0.15;1" dur="3.1s" repeatCount="indefinite"/>
    </circle>
    <circle cx="1058" cy="154" r="2.5" fill="#a78bfa">
      <animate attributeName="opacity" values="0.25;0.8;0.25" dur="2.8s" repeatCount="indefinite"/>
    </circle>
  </g>
</svg>
