<svg xmlns="http://www.w3.org/2000/svg" width="980" height="980" viewBox="0 0 980 980">
<g>
<path d="M 520.49 770.42 C511.57,779.26 501.15,790.01 497.34,794.29 L 490.40 802.08 L 479.53 789.99 C456.92,764.85 435.43,745.51 369.50,690.97 C314.17,645.21 286.01,614.80 271.53,585.21 C263.43,568.65 259.50,556.38 257.03,540.00 C255.57,530.29 255.58,506.39 257.05,499.15 C262.28,473.32 264.54,465.28 271.64,447.25 L 276.07 435.99 L 260.75 420.75 C244.18,404.27 233.14,391.10 222.79,375.45 C216.57,366.05 207.90,350.11 205.40,343.50 C200.33,330.04 198.73,325.03 196.44,315.46 C193.20,301.84 192.18,282.18 193.94,267.06 C195.04,257.67 199.80,239.89 203.48,231.50 C208.13,220.86 209.59,217.87 212.75,212.50 C218.83,202.16 224.71,193.71 231.22,185.97 L 237.50 178.50 L 237.83 181.92 C238.01,183.80 237.67,187.26 237.08,189.61 C233.79,202.66 237.78,237.62 245.01,259.04 C258.19,298.14 280.33,331.09 336.94,395.89 C363.42,426.20 374.94,439.63 385.10,452.03 C433.84,511.54 456.87,556.85 464.43,608.13 C466.06,619.14 466.59,643.52 465.22,644.36 C464.80,644.63 461.77,643.42 458.49,641.67 L 452.54 638.50 L 448.11 627.50 C432.55,588.93 409.38,553.13 378.24,519.55 C367.38,507.83 346.95,488.83 335.75,480.02 C333.63,478.35 330.00,477.25 330.00,478.27 C330.00,478.42 328.65,483.93 326.99,490.52 C315.12,537.85 325.34,573.95 361.58,612.76 C372.63,624.60 402.50,651.06 429.38,672.83 C447.82,687.77 473.24,713.42 484.78,728.75 C487.79,732.74 490.36,736.00 490.50,736.00 C490.64,736.00 493.21,732.74 496.22,728.75 C511.01,709.11 529.34,691.47 573.00,654.87 C629.97,607.12 649.75,581.27 656.49,545.75 C659.36,530.60 657.60,499.09 653.42,490.88 C652.68,489.43 652.29,488.05 652.54,487.80 C653.10,487.23 650.12,477.00 649.39,477.00 C648.00,477.00 625.13,497.10 613.99,508.13 C585.72,536.09 563.99,564.75 547.28,596.12 C541.43,607.09 531.18,629.73 528.67,637.21 C528.02,639.13 516.16,645.50 515.15,644.48 C514.00,643.31 515.00,616.82 516.60,606.00 C523.69,558.17 545.45,514.78 590.56,458.50 C601.41,444.97 608.70,436.43 649.54,389.42 C660.01,377.36 671.26,364.12 674.54,360.00 C677.81,355.88 680.75,352.27 681.08,352.00 C683.34,350.07 701.86,324.31 708.71,313.59 C724.08,289.51 733.31,269.27 738.86,247.50 C744.41,225.74 745.66,212.68 744.02,193.63 C743.40,186.55 743.19,180.48 743.55,180.13 C745.35,178.36 764.31,204.63 771.25,218.50 C783.79,243.57 789.07,269.54 786.95,295.66 C783.40,339.11 761.78,379.53 719.79,421.17 C711.66,429.23 705.00,436.22 705.00,436.70 C705.00,437.17 706.51,441.15 708.36,445.53 C721.45,476.59 727.65,513.82 723.94,539.23 C720.16,565.18 709.54,589.19 690.88,614.02 C673.71,636.89 651.50,657.94 597.50,702.55 C558.12,735.09 540.19,750.89 520.49,770.42 Z" fill="rgb(0,0,0)"/>
<path d="M 0.00 0.00 L 980.00 0.00 L 980.00 980.00 L 0.00 980.00 ZM 485.59 802.19 C490.03,805.86 492.88,806.42 495.09,804.06 C495.86,803.23 496.39,802.43 496.25,802.27 C495.37,801.31 496.35,799.80 498.49,798.82 C499.87,798.20 501.89,796.16 502.99,794.30 C504.09,792.43 505.55,790.98 506.24,791.07 C510.37,791.61 510.82,791.09 510.55,786.00 C510.36,782.28 510.65,781.00 511.68,781.00 C512.44,781.00 513.32,780.34 513.62,779.54 C513.93,778.73 515.07,777.79 516.16,777.45 C517.24,777.11 519.49,774.61 521.15,771.91 C522.82,769.20 524.61,767.26 525.13,767.58 C525.66,767.91 526.83,767.57 527.74,766.84 C528.91,765.88 529.17,765.86 528.63,766.75 C527.55,768.56 528.18,768.32 532.06,765.46 C533.95,764.06 535.50,762.14 535.50,761.21 C535.50,760.02 536.47,759.41 538.70,759.19 C541.86,758.88 543.87,756.21 542.55,754.08 C541.63,752.59 544.49,751.20 549.50,750.70 C550.97,750.55 551.54,749.71 551.64,747.50 C551.71,745.85 551.83,743.99 551.89,743.38 C551.95,742.76 553.24,742.00 554.75,741.69 C556.56,741.33 558.14,739.95 559.37,737.64 C560.39,735.72 561.76,734.36 562.41,734.61 C563.06,734.85 565.60,733.25 568.05,731.04 C570.50,728.84 572.89,727.02 573.37,727.01 C573.85,727.01 576.03,724.97 578.21,722.50 C580.39,720.02 582.54,718.21 582.98,718.48 C583.41,718.76 584.33,718.31 585.01,717.49 C585.69,716.67 586.86,716.00 587.62,716.00 C588.38,716.00 589.00,715.39 589.00,714.65 C589.00,712.96 592.44,709.77 593.32,710.65 C594.06,711.40 599.00,706.42 599.00,704.93 C599.00,704.40 600.53,703.24 602.41,702.34 C604.28,701.45 606.37,699.68 607.05,698.41 C608.18,696.30 613.33,693.48 615.32,693.88 C615.78,693.97 615.89,693.63 615.57,693.12 C615.08,692.32 616.66,690.74 622.50,686.19 C623.05,685.76 625.06,684.31 626.96,682.96 C628.86,681.60 631.45,679.50 632.72,678.29 C634.18,676.88 635.65,676.31 636.76,676.72 C638.16,677.25 638.28,677.09 637.38,675.94 C636.51,674.82 636.75,674.05 638.43,672.50 C639.63,671.40 641.26,670.36 642.05,670.18 C643.52,669.87 647.25,666.34 648.06,664.50 C648.30,663.95 648.74,663.58 649.02,663.67 C649.31,663.77 650.66,662.94 652.02,661.84 C653.39,660.73 653.83,660.13 653.00,660.50 C652.17,660.87 653.01,659.75 654.84,658.01 C656.75,656.21 658.81,655.10 659.65,655.42 C660.58,655.78 660.85,655.56 660.39,654.82 C659.92,654.05 660.22,653.87 661.27,654.27 C662.45,654.73 662.84,654.31 662.76,652.69 C662.70,651.49 662.20,649.91 661.65,649.19 C661.11,648.48 661.08,648.00 661.58,648.15 C664.14,648.88 669.87,645.73 671.02,642.96 C672.23,640.03 672.61,639.80 676.50,639.60 C677.86,639.53 678.59,638.70 678.77,637.00 C678.92,635.62 679.11,633.94 679.19,633.25 C679.27,632.56 679.76,632.00 680.27,632.00 C680.79,632.00 681.00,631.44 680.73,630.75 C680.41,629.91 681.29,629.50 683.38,629.50 C686.17,629.50 686.47,629.21 686.22,626.82 C685.92,623.87 689.20,620.75 691.63,621.69 C692.59,622.06 692.83,621.72 692.40,620.61 C692.06,619.73 692.28,619.00 692.89,619.00 C693.50,619.00 694.01,618.21 694.02,617.25 C694.04,615.40 699.45,606.79 700.16,607.49 C700.39,607.72 700.60,607.14 700.63,606.20 C700.67,605.27 700.88,604.05 701.10,603.50 C701.32,602.95 701.24,602.28 700.91,602.00 C700.59,601.72 696.25,606.91 691.28,613.52 C690.30,614.83 689.30,616.12 688.29,617.41 C689.17,616.28 690.03,615.16 690.88,614.02 C704.82,595.48 714.27,577.39 719.73,558.61 C719.69,558.81 719.64,559.02 719.60,559.25 C719.26,561.04 717.03,567.33 714.64,573.24 C712.26,579.15 710.54,584.21 710.82,584.49 C711.70,585.37 712.15,585.05 711.50,584.00 C711.16,583.45 711.56,583.00 712.38,583.00 C713.21,583.00 714.51,582.10 715.28,581.01 C716.05,579.91 716.90,579.23 717.17,579.51 C717.77,580.11 718.03,578.18 718.30,571.00 C718.45,567.06 719.16,564.63 720.80,562.45 C722.19,560.59 722.83,558.73 722.44,557.70 C721.63,555.60 720.74,555.57 720.07,557.44 C721.29,553.13 722.29,548.77 723.10,544.37 C723.25,545.31 723.58,545.76 724.00,545.50 C724.55,545.16 725.00,544.04 725.00,543.00 C725.00,541.96 724.55,540.84 724.00,540.50 C723.92,540.45 723.84,540.43 723.76,540.43 C723.82,540.03 723.88,539.63 723.94,539.23 C725.63,527.62 725.26,513.53 723.10,498.70 C723.38,499.96 723.63,500.55 723.78,500.14 C724.17,498.99 724.38,498.99 725.11,500.14 C725.72,501.10 725.97,500.74 725.98,498.87 C725.99,497.43 725.29,495.65 724.41,494.93 C723.37,494.06 722.96,492.48 723.21,490.31 C723.42,488.49 723.27,487.00 722.86,487.00 C722.46,487.00 722.36,485.31 722.65,483.25 C723.04,480.42 722.90,479.87 722.10,481.00 C721.21,482.25 721.03,482.13 721.02,480.31 C721.01,479.10 720.48,477.80 719.84,477.40 C719.03,476.90 718.88,477.41 719.33,479.09 C719.47,479.64 719.61,480.24 719.72,480.82 C718.87,477.17 717.93,473.51 716.89,469.87 C717.36,471.18 717.74,472.00 717.91,472.00 C719.23,471.99 718.92,464.52 717.51,462.38 C716.68,461.11 716.00,459.45 716.00,458.68 C716.00,457.92 714.91,455.25 713.58,452.74 C712.24,450.23 711.46,447.84 711.83,447.43 C712.20,447.02 712.05,446.93 711.50,447.24 C710.90,447.58 710.50,446.08 710.50,443.50 C710.50,441.13 710.88,439.43 711.35,439.72 C711.82,440.01 711.73,439.37 711.16,438.31 C709.92,435.98 711.75,431.56 714.03,431.40 C714.84,431.35 716.03,431.24 716.67,431.15 C717.32,431.07 718.35,429.46 718.97,427.59 C720.05,424.31 722.31,422.46 723.98,423.49 C725.07,424.16 726.98,421.69 727.52,418.90 C727.91,416.85 730.37,414.46 731.33,415.21 C732.19,415.89 735.00,412.60 735.00,410.91 C735.00,409.25 738.59,406.33 740.12,406.74 C740.95,406.97 744.06,398.91 743.50,398.00 C742.96,397.13 746.12,394.13 749.18,392.59 C750.37,391.99 751.77,390.15 752.30,388.50 C753.44,384.95 755.93,381.84 757.08,382.55 C757.53,382.83 758.19,381.50 758.55,379.60 C759.16,376.32 761.23,374.40 762.98,375.49 C764.20,376.24 766.29,373.21 765.67,371.59 C765.37,370.79 765.78,369.60 766.58,368.93 C767.41,368.24 767.79,366.91 767.46,365.86 C766.57,363.06 767.75,360.43 770.46,359.20 C772.35,358.34 772.78,357.52 772.41,355.50 C772.14,353.96 772.56,352.29 773.47,351.38 C774.31,350.54 774.99,348.88 774.98,347.68 C774.97,346.43 772.44,350.28 769.07,356.66 C769.00,356.78 768.94,356.90 768.88,357.02 C771.94,351.13 774.62,345.21 776.91,339.26 C775.80,342.43 775.05,344.58 775.04,344.63 C775.02,344.70 776.58,344.04 778.50,343.17 C780.42,342.30 782.01,341.11 782.02,340.54 C782.03,339.97 782.20,335.67 782.40,331.00 L 782.76 322.50 L 780.40 329.25 C783.85,318.21 786.02,307.04 786.95,295.66 C787.41,289.97 787.52,284.29 787.28,278.63 C787.39,280.15 787.52,279.79 787.73,277.75 C787.94,275.69 788.55,274.00 789.08,274.00 C789.65,274.00 789.77,271.53 789.37,267.75 C789.00,264.31 788.65,259.78 788.60,257.68 C788.53,255.10 787.91,253.53 786.67,252.84 C785.67,252.28 784.65,252.02 784.40,252.27 C784.18,252.48 784.50,255.47 785.11,259.30 C784.26,254.71 783.19,250.14 781.88,245.59 C782.46,247.06 782.87,247.96 783.00,247.97 C784.13,248.04 782.68,236.54 781.40,235.25 C780.63,234.49 780.00,232.54 780.00,230.93 C780.00,229.32 779.52,228.00 778.94,228.00 C778.36,228.00 778.16,227.55 778.50,227.00 C778.84,226.45 778.14,226.00 776.95,226.00 C775.26,226.00 774.96,226.38 775.57,227.75 C775.67,227.98 775.85,228.42 776.08,229.04 C775.24,227.03 774.36,225.02 773.43,223.02 L 774.77 220.47 C776.04,218.04 775.88,217.71 771.53,213.82 C769.01,211.56 767.14,209.53 767.38,209.29 C768.47,208.20 765.50,201.17 762.72,198.26 C761.01,196.47 759.45,194.22 759.25,193.26 C758.38,189.07 757.88,186.42 757.78,185.36 C757.72,184.73 756.58,184.33 755.25,184.48 C751.98,184.84 748.73,181.37 750.04,178.92 C751.30,176.58 750.50,176.22 744.63,176.44 C738.25,176.68 736.55,178.68 738.58,183.55 C739.36,185.41 740.01,188.64 740.02,190.72 C740.03,193.67 740.27,194.17 741.09,193.00 C741.89,191.88 742.04,192.57 741.67,195.75 C741.41,198.09 741.60,200.25 742.10,200.56 C743.22,201.25 743.28,208.07 742.19,211.18 C741.70,212.57 741.86,214.91 742.57,217.00 L 743.78 220.50 L 744.48 213.99 C744.87,210.41 744.67,201.47 744.05,194.12 C743.94,192.87 743.85,191.65 743.76,190.49 C743.84,191.50 743.92,192.55 744.02,193.63 C745.03,205.38 744.95,214.85 743.43,225.48 C743.59,223.64 743.61,222.31 743.39,222.12 C743.03,221.78 742.52,222.07 742.28,222.76 C742.03,223.45 741.47,223.79 741.04,223.52 C739.80,222.76 738.85,230.84 739.60,235.80 C739.98,238.37 740.48,239.58 740.90,239.02 C740.30,241.71 739.62,244.52 738.86,247.50 C738.01,250.87 737.06,254.20 736.01,257.52 C736.29,254.99 734.88,255.45 732.25,259.32 C730.06,262.53 729.30,266.96 730.68,268.35 C731.26,268.92 731.82,268.75 732.52,267.59 C727.58,280.62 720.98,293.71 712.16,308.08 C722.10,291.69 731.40,272.86 729.80,271.87 C729.03,271.39 728.34,271.56 728.10,272.28 C727.51,274.05 723.22,277.89 722.56,277.23 C722.25,276.92 721.94,278.32 721.88,280.33 C721.69,285.87 721.67,285.93 719.20,288.50 C717.93,289.82 716.24,290.65 715.45,290.34 C714.03,289.80 713.38,293.59 713.85,299.56 C713.94,300.69 712.67,302.90 711.01,304.49 C709.32,306.11 708.00,308.41 708.00,309.75 C708.00,311.05 707.61,311.88 707.14,311.59 C706.67,311.29 705.43,312.95 704.40,315.28 C703.37,317.60 701.48,320.34 700.21,321.36 C698.94,322.39 698.12,323.45 698.39,323.72 C698.66,323.99 697.80,325.38 696.48,326.81 C695.15,328.24 693.78,329.11 693.42,328.75 C692.33,327.67 690.00,330.69 689.77,333.47 C689.63,335.18 687.93,337.47 684.85,340.13 C682.26,342.36 680.35,344.75 680.61,345.43 C680.88,346.12 680.40,347.26 679.55,347.96 C678.70,348.67 678.00,349.82 678.00,350.52 C678.00,351.89 675.29,353.30 674.08,352.55 C673.67,352.29 673.28,352.63 673.22,353.29 C673.16,353.96 672.93,355.68 672.71,357.12 C672.38,359.24 672.64,359.64 674.11,359.26 C674.70,359.11 675.47,358.60 676.17,357.95 C675.64,358.61 675.09,359.30 674.54,360.00 C672.61,362.42 667.95,367.97 662.31,374.58 C668.95,366.66 672.15,362.33 671.45,362.17 C670.64,362.00 670.19,361.51 670.44,361.09 C671.15,359.95 667.12,360.48 665.92,361.68 C665.00,362.60 664.35,364.56 664.08,367.24 C664.03,367.64 662.42,368.63 660.50,369.44 C657.62,370.64 657.00,371.42 657.00,373.84 C657.00,376.84 655.58,378.00 651.92,378.00 C650.85,378.00 650.00,378.69 650.00,379.56 C650.00,380.53 650.47,380.84 651.25,380.39 C651.94,379.98 651.26,380.92 649.75,382.46 C648.24,384.01 647.00,385.74 647.00,386.30 C647.00,386.87 646.75,387.08 646.44,386.77 C645.58,385.91 641.49,390.10 639.61,393.77 C636.91,399.02 627.49,409.42 626.18,408.61 C625.36,408.11 625.17,408.69 624.76,412.98 C624.58,414.91 619.79,417.45 618.59,416.25 C618.26,415.93 618.00,416.22 618.00,416.89 C618.00,417.57 617.52,417.82 616.93,417.46 C616.35,417.10 615.95,417.41 616.05,418.15 C616.55,421.79 615.89,424.00 614.31,424.00 C612.08,424.00 608.00,427.91 608.00,430.05 C608.00,431.97 605.29,434.62 604.32,433.65 C603.60,432.93 601.00,434.82 601.00,436.05 C601.00,436.49 601.71,437.56 602.57,438.43 C603.44,439.29 604.49,440.00 604.91,440.00 C605.32,440.00 611.67,433.06 619.25,424.35 C603.63,442.46 597.91,449.33 590.56,458.50 C572.08,481.55 557.52,502.44 546.28,522.36 C550.20,515.24 554.23,508.55 558.11,502.84 C560.30,499.61 561.85,496.57 561.55,496.09 C561.26,495.60 561.61,494.98 562.35,494.70 C563.08,494.42 566.84,489.76 570.71,484.34 C577.97,474.17 597.28,449.58 601.79,444.76 C603.20,443.25 604.03,441.69 603.62,441.29 C603.22,440.89 602.58,440.99 602.20,441.53 C601.81,442.06 600.94,442.61 600.25,442.75 L 597.75 443.25 C596.18,443.56 592.00,448.14 592.00,449.55 C592.00,450.12 590.19,452.37 587.97,454.53 C584.76,457.66 583.99,459.09 584.22,461.48 C584.47,464.21 584.24,464.48 581.76,464.30 C578.62,464.07 576.91,466.40 576.78,471.10 C576.73,472.73 576.24,474.35 575.69,474.69 C575.14,475.03 575.00,474.82 575.37,474.21 C575.81,473.50 575.08,473.19 573.30,473.33 C570.96,473.51 570.54,474.01 570.40,476.76 C570.31,478.58 570.65,479.72 571.19,479.38 C571.72,479.06 571.57,479.72 570.86,480.85 C570.15,481.98 569.40,482.73 569.18,482.51 C568.81,482.14 567.68,482.93 564.49,485.80 C563.70,486.51 562.58,488.85 562.00,491.00 C560.82,495.38 559.64,496.47 556.00,496.53 C553.86,496.56 553.41,497.15 552.90,500.53 C552.13,505.61 550.63,509.23 548.62,510.90 C547.74,511.63 547.27,512.63 547.57,513.11 C547.87,513.60 547.64,514.00 547.06,514.00 C546.48,514.00 546.00,514.61 546.00,515.37 C546.00,516.12 545.05,517.93 543.89,519.41 C542.68,520.95 542.01,522.91 542.30,524.04 C542.67,525.46 542.31,526.00 540.97,526.00 C538.84,526.00 538.28,526.69 537.65,530.07 C537.08,533.20 534.87,538.00 534.01,538.00 C533.65,538.00 533.55,539.41 533.81,541.14 C534.07,542.94 533.87,544.04 533.34,543.71 C531.59,542.63 529.63,544.84 529.40,548.15 C529.27,549.96 528.68,551.61 528.08,551.81 C527.49,552.00 527.00,553.40 527.00,554.92 C527.00,556.62 525.89,558.77 524.10,560.57 C521.45,563.21 521.24,563.93 521.72,568.60 C522.04,571.63 521.83,573.99 521.22,574.36 C520.65,574.72 520.43,575.92 520.72,577.04 C521.01,578.16 521.49,578.84 521.78,578.55 C522.03,578.30 523.46,574.51 525.13,569.68 C521.22,581.69 518.42,593.70 516.60,606.00 C515.60,612.72 514.84,625.48 514.68,634.47 C514.69,633.80 514.70,633.11 514.71,632.41 C514.83,625.65 514.53,621.00 513.96,621.00 C513.42,621.00 512.98,624.86 512.96,629.75 C512.94,634.56 512.67,640.25 512.36,642.38 C511.98,645.05 512.22,646.53 513.15,647.11 C513.89,647.58 515.31,647.98 516.29,647.98 C518.62,648.00 525.55,644.45 528.04,641.96 C529.12,640.88 530.41,640.00 530.90,640.00 C532.29,640.00 534.00,634.18 534.00,629.43 C534.00,625.78 534.59,624.56 538.02,621.10 C541.62,617.47 542.08,616.43 542.39,611.38 C542.70,606.08 543.76,604.21 546.46,604.16 C546.99,604.16 547.75,603.33 548.14,602.32 C548.75,600.79 548.89,600.90 549.06,603.00 C549.24,605.22 550.67,599.07 551.23,593.63 C551.34,592.61 552.46,591.09 553.71,590.27 C555.02,589.42 556.00,587.76 556.00,586.43 C556.00,585.15 556.64,583.74 557.42,583.30 C558.20,582.86 558.99,580.92 559.17,579.00 C559.42,576.34 559.98,575.47 561.50,575.36 C562.60,575.28 563.99,575.16 564.59,575.11 C565.92,574.98 568.00,570.62 568.00,567.95 C568.00,566.06 568.99,565.55 571.89,565.96 C572.78,566.08 573.05,565.58 572.65,564.52 C572.30,563.63 572.73,561.82 573.59,560.50 C575.47,557.63 576.64,551.49 575.13,552.42 C575.12,552.43 575.11,552.44 575.09,552.44 L 579.05 550.64 C581.29,550.64 582.14,550.03 582.89,547.90 C583.85,545.12 587.36,542.49 588.85,543.41 C589.30,543.69 589.74,543.26 589.83,542.46 C589.92,541.66 590.08,540.33 590.17,539.50 C590.26,538.67 590.78,538.00 591.33,538.00 C591.88,538.00 592.03,537.70 591.66,537.33 C591.29,536.96 592.64,535.72 594.66,534.58 C596.95,533.29 598.70,531.36 599.29,529.50 C600.39,526.02 607.26,518.49 611.25,516.39 C612.76,515.60 614.00,514.32 614.00,513.54 C614.00,512.77 614.91,511.85 616.01,511.50 C617.12,511.14 617.77,510.44 617.46,509.93 C617.14,509.42 617.93,508.53 619.21,507.95 C621.25,507.02 625.54,501.37 625.26,499.98 C625.20,499.69 625.90,498.47 626.83,497.27 C628.30,495.34 630.30,494.73 637.25,494.07 C637.66,494.03 638.00,493.17 638.00,492.15 C638.00,489.84 641.42,486.67 644.13,486.47 C645.26,486.39 646.59,485.69 647.08,484.91 C647.57,484.13 647.98,483.95 648.00,484.50 C648.02,485.05 648.47,484.83 649.00,484.00 C649.78,482.79 649.97,482.93 649.98,484.75 C649.99,486.04 650.62,487.00 651.45,487.00 C652.16,487.00 652.47,486.81 652.40,485.92 C652.60,486.93 652.68,487.66 652.54,487.80 C652.29,488.05 652.68,489.43 653.42,490.88 C654.65,493.29 655.67,497.72 656.42,503.15 C656.40,503.02 656.38,502.89 656.35,502.75 C654.58,493.09 654.37,492.50 652.49,492.14 C650.98,491.85 650.80,492.06 651.65,493.13 C652.25,493.89 652.58,495.40 652.39,496.50 C651.86,499.42 653.01,504.11 654.08,503.45 C654.59,503.14 655.00,503.58 655.00,504.44 C655.00,505.30 655.44,506.00 655.97,506.00 C656.46,506.00 656.65,504.93 656.46,503.42 C656.67,505.00 656.87,506.67 657.04,508.40 C656.34,506.61 656.25,506.67 655.09,508.84 C654.14,510.61 654.13,511.45 655.05,512.56 C656.14,513.87 656.99,514.17 657.48,513.73 C657.99,521.50 658.05,529.89 657.55,536.99 C657.46,536.98 657.36,536.99 657.24,536.99 C657.17,537.00 657.09,537.00 657.00,537.00 C656.45,537.00 656.00,538.09 656.00,539.43 C656.00,540.76 655.28,542.58 654.39,543.46 C653.46,544.40 653.01,545.94 653.33,547.15 C653.63,548.29 653.49,549.97 653.03,550.87 C651.24,554.30 648.61,562.60 648.56,564.96 C648.52,566.73 647.80,567.57 646.00,568.00 C644.17,568.43 643.50,569.25 643.50,571.05 C643.50,572.40 642.94,574.09 642.25,574.82 C641.56,575.55 640.99,577.57 640.98,579.32 C640.97,583.38 640.20,584.47 636.50,585.68 C633.89,586.53 633.43,587.24 633.00,591.07 C632.59,594.73 632.00,595.72 629.57,596.88 C626.45,598.37 616.00,608.71 616.00,610.31 C616.00,611.54 610.74,616.52 609.75,616.23 C609.34,616.10 609.00,616.47 609.00,617.04 C609.00,617.61 607.21,619.94 605.02,622.22 C601.80,625.57 601.27,626.62 602.24,627.79 C602.54,628.15 602.94,628.25 603.59,627.96 C602.56,628.93 601.50,629.91 600.43,630.90 C601.42,629.64 601.14,629.11 600.14,628.06 C597.31,625.08 594.48,626.47 593.62,631.26 C593.16,633.85 591.03,636.81 589.29,637.29 C588.85,637.40 588.61,637.84 588.75,638.25 C588.89,638.66 588.52,639.00 587.94,639.00 C587.36,639.00 587.16,639.45 587.50,640.00 C588.17,641.08 587.32,641.31 582.13,641.42 C579.71,641.48 578.30,642.19 577.13,643.96 C575.78,646.00 575.75,646.27 577.00,645.56 C577.83,645.09 575.64,647.47 572.15,650.85 C568.65,654.23 565.53,657.00 565.21,657.00 C563.73,657.00 560.20,661.36 560.68,662.61 C560.97,663.37 560.83,664.05 560.36,664.11 C559.89,664.18 558.16,664.38 556.53,664.57 C554.51,664.80 552.46,666.23 550.14,669.01 C548.27,671.27 546.17,672.89 545.46,672.62 C544.76,672.36 543.39,673.02 542.41,674.10 C541.43,675.18 540.07,675.86 539.38,675.59 C538.63,675.31 537.88,676.26 537.50,677.99 C537.16,679.57 536.23,681.39 535.45,682.04 C534.66,682.69 534.22,683.54 534.45,683.92 C534.69,684.30 533.84,685.93 532.56,687.53 C530.70,689.87 529.96,690.21 528.82,689.26 C527.70,688.34 526.70,688.50 524.20,690.03 C522.44,691.10 521.00,692.40 521.00,692.93 C521.00,694.55 516.36,699.02 515.49,698.23 C515.05,697.83 514.96,698.26 515.29,699.20 C515.70,700.35 515.47,700.73 514.58,700.39 C513.85,700.11 512.98,700.61 512.64,701.49 C512.26,702.49 512.43,702.85 513.09,702.45 C513.67,702.09 513.55,702.74 512.83,703.91 C512.06,705.14 510.89,705.79 510.03,705.46 C509.22,705.15 508.85,705.18 509.20,705.54 C509.56,705.89 506.92,709.18 503.33,712.84 C499.75,716.50 495.72,721.37 494.37,723.65 C492.51,726.81 491.47,727.67 489.97,727.28 C488.19,726.82 487.56,725.37 487.88,722.47 C487.98,721.53 486.57,721.19 480.50,720.67 C478.88,720.53 478.56,719.90 478.81,717.35 C479.16,713.87 478.69,713.35 474.51,712.59 C471.12,711.97 470.15,710.68 470.74,707.58 C471.25,704.90 468.73,703.42 467.06,705.42 C466.24,706.42 467.55,708.48 472.63,714.11 C474.70,716.41 477.33,719.51 479.78,722.49 C471.32,712.36 459.13,699.70 447.19,688.50 C451.26,692.29 455.26,696.05 457.49,698.17 C460.78,701.30 463.63,703.70 463.83,703.51 C464.93,702.40 462.33,698.60 459.05,696.53 C456.28,694.78 455.31,693.52 455.44,691.82 C455.70,688.45 455.13,687.86 452.82,689.10 C451.27,689.93 450.94,689.91 451.48,689.03 C451.90,688.35 451.65,687.94 450.85,688.05 C447.79,688.47 447.11,687.82 446.81,684.25 C446.53,680.82 446.24,680.50 443.50,680.50 C441.29,680.50 439.97,679.71 438.47,677.50 C437.30,675.79 435.37,674.38 433.97,674.21 C432.04,673.99 433.68,675.94 441.50,683.20 C442.76,684.37 444.11,685.62 445.47,686.90 C439.88,681.70 434.37,676.87 429.38,672.83 C429.09,672.60 428.80,672.36 428.51,672.12 C431.24,674.02 433.77,673.63 431.47,671.33 C430.66,670.52 430.00,668.99 430.00,667.93 C430.00,666.55 429.30,666.00 427.56,666.00 C425.07,666.00 423.57,664.57 423.53,662.16 C423.51,661.43 421.48,659.85 419.00,658.66 C415.00,656.74 414.50,656.13 414.51,653.20 C414.52,650.53 414.19,649.98 412.76,650.35 C411.79,650.60 410.74,650.38 410.41,649.85 C410.08,649.33 409.30,649.09 408.66,649.32 C407.46,649.76 401.33,645.67 399.42,643.16 C398.83,642.38 397.25,641.63 395.92,641.50 C394.59,641.37 393.16,641.20 392.75,641.13 C392.34,641.06 392.00,639.68 392.00,638.06 C392.00,635.22 388.62,631.50 386.97,632.52 C386.06,633.08 383.09,629.81 383.32,628.50 C383.42,627.95 381.97,626.74 380.10,625.80 C378.23,624.87 375.75,622.41 374.59,620.35 C373.35,618.14 371.46,616.33 369.99,615.95 C368.62,615.61 367.63,614.74 367.80,614.02 C368.20,612.23 363.89,607.83 362.31,608.43 C361.61,608.70 360.56,608.04 359.98,606.96 C359.40,605.88 359.19,605.00 359.50,605.00 C359.81,605.00 359.59,604.10 359.01,603.01 C358.42,601.92 357.62,601.09 357.22,601.17 C355.94,601.45 351.06,599.82 351.15,599.15 C351.45,596.86 350.71,594.97 348.69,592.89 C344.47,588.53 341.87,584.04 341.78,580.97 C341.69,577.77 340.77,576.76 337.54,576.25 C335.03,575.86 333.94,574.07 334.61,571.40 C334.92,570.16 334.47,568.61 333.51,567.65 C332.49,566.63 331.99,564.80 332.19,562.80 C332.44,560.23 332.01,559.35 330.03,558.35 C328.68,557.66 327.39,557.28 327.17,557.49 C327.13,557.53 327.11,557.61 327.10,557.71 C326.27,555.06 325.55,552.39 324.93,549.70 C325.38,551.48 325.67,551.39 326.08,550.00 C327.05,546.65 327.15,538.74 326.23,537.50 C324.99,535.81 323.00,535.91 323.00,537.67 C323.00,538.59 323.53,542.30 324.18,545.92 C324.34,546.83 324.48,547.61 324.61,548.26 C323.45,542.81 322.73,537.27 322.43,531.59 C322.57,531.60 322.78,530.62 323.12,528.85 C323.65,526.10 323.64,522.63 323.11,520.35 C322.83,519.19 322.64,518.52 322.50,518.48 C322.63,516.31 322.82,514.13 323.06,511.92 C323.16,513.24 323.65,514.00 324.43,514.00 C326.26,514.00 326.89,511.12 325.66,508.28 C325.00,506.75 325.08,505.61 325.91,504.61 C326.72,503.64 326.87,501.87 326.36,499.33 L 325.70 496.02 C326.10,494.20 326.53,492.37 326.99,490.52 L 327.15 489.88 C327.11,491.01 327.86,490.47 329.56,489.13 C333.54,486.00 339.68,486.85 343.15,491.01 C344.64,492.80 346.91,494.37 348.18,494.51 C349.46,494.64 350.84,494.80 351.25,494.87 C351.66,494.94 352.00,496.09 352.00,497.43 C352.00,498.76 352.68,500.53 353.50,501.36 C354.33,502.19 356.42,502.83 358.15,502.78 L 361.30 502.69 L 355.90 497.59 C350.38,492.38 340.34,483.63 335.75,480.02 C343.69,486.26 356.26,497.63 366.78,507.89 C364.74,506.05 363.31,505.00 362.78,505.00 C361.72,505.00 361.17,505.46 361.53,506.04 C361.88,506.62 361.63,507.74 360.96,508.54 C360.05,509.65 360.04,510.00 360.94,510.00 C361.59,510.00 361.86,510.42 361.54,510.94 C360.79,512.15 365.10,511.95 366.75,510.70 C367.63,510.04 368.00,510.25 368.00,511.44 C368.00,512.40 368.47,512.83 369.10,512.44 C369.86,511.97 369.93,512.34 369.32,513.63 C368.84,514.66 368.46,516.40 368.48,517.50 C368.50,519.11 369.18,519.50 372.00,519.50 C376.69,519.50 377.81,520.41 377.40,523.88 C377.04,527.01 378.70,528.42 381.06,526.96 C382.82,525.88 385.06,527.67 384.33,529.59 C384.02,530.38 384.33,531.69 385.01,532.51 C385.69,533.33 385.85,534.01 385.37,534.01 C384.89,534.02 385.59,534.59 386.93,535.26 C388.27,535.94 390.48,538.74 391.85,541.49 C394.24,546.30 396.34,549.12 397.47,549.03 C398.61,548.94 402.00,551.53 402.01,552.49 C402.02,553.05 403.59,555.48 405.51,557.89 C407.43,560.31 409.00,563.33 409.00,564.62 C409.00,566.34 410.05,567.50 412.97,568.98 C415.30,570.17 416.73,571.53 416.44,572.29 C415.48,574.81 418.63,581.41 421.59,583.05 C423.19,583.94 424.55,585.31 424.61,586.08 C424.89,589.86 426.35,596.10 427.04,596.53 C427.47,596.79 428.99,597.10 430.41,597.22 C433.31,597.46 434.52,599.84 434.08,604.45 C433.86,606.86 434.06,607.19 435.18,606.26 C436.30,605.34 436.54,605.63 436.44,607.78 C436.38,609.24 436.78,610.92 437.34,611.52 C437.90,612.11 439.19,612.66 440.22,612.74 C441.76,612.86 440.78,610.36 434.72,598.64 C433.46,596.20 432.18,593.79 430.88,591.41 C437.40,603.17 443.14,615.19 448.11,627.50 L 452.54 638.50 L 458.49 641.67 C459.28,642.09 460.05,642.48 460.78,642.82 C460.06,642.49 459.29,642.11 458.51,641.69 L 452.51 638.50 L 448.01 627.26 C443.68,616.47 441.00,613.14 441.00,618.55 C441.00,619.95 441.71,622.47 442.57,624.14 C443.44,625.81 443.91,627.80 443.61,628.56 C443.00,630.18 445.51,633.00 447.56,633.00 C448.58,633.00 448.94,634.14 448.83,637.01 C448.71,640.01 449.28,641.67 451.07,643.57 C453.18,645.82 454.01,646.05 457.98,645.51 C461.18,645.07 463.08,645.32 464.49,646.36 C467.26,648.40 470.46,646.69 469.51,643.66 C468.30,639.76 467.42,626.98 468.31,626.09 C468.81,625.59 468.61,624.20 467.84,622.86 C466.65,620.76 466.47,621.79 466.22,631.98 C466.16,634.13 466.07,636.18 465.97,637.96 C466.13,631.01 465.72,619.86 464.91,611.99 C465.74,617.07 467.38,616.93 467.81,611.07 C468.04,607.92 467.81,607.00 466.91,607.56 C466.12,608.05 465.95,607.89 466.43,607.11 C466.84,606.45 466.51,604.90 465.70,603.66 C464.89,602.43 464.01,600.76 463.74,599.96 C463.48,599.16 463.44,599.85 463.66,601.50 C463.85,602.86 464.19,605.77 464.49,608.53 C464.47,608.39 464.45,608.26 464.43,608.13 C463.80,603.86 463.07,599.63 462.22,595.44 C462.35,595.84 462.53,596.20 462.73,596.40 C463.13,596.80 463.63,596.61 463.84,595.97 C464.05,595.34 463.72,594.32 463.11,593.71 C462.30,592.90 462.00,593.01 462.00,594.13 C462.00,594.24 462.00,594.34 462.01,594.45 C457.96,574.86 451.43,555.90 441.81,536.38 C444.28,540.72 446.16,543.55 446.49,543.26 C446.94,542.84 447.00,543.40 446.60,544.50 C446.05,546.03 446.16,546.22 447.05,545.34 C447.74,544.66 447.88,543.62 447.40,542.84 C446.95,542.10 446.52,540.83 446.46,540.00 C446.39,539.18 446.27,537.52 446.17,536.32 C446.06,534.89 445.23,534.03 443.75,533.82 C442.51,533.64 441.46,532.83 441.40,532.00 C441.24,529.46 439.84,526.98 438.90,527.56 C438.40,527.87 438.00,525.39 438.00,522.06 C438.00,516.80 437.75,516.00 436.12,516.00 C433.73,516.00 432.65,514.54 431.13,509.22 C430.45,506.87 429.47,505.21 428.95,505.53 C428.43,505.85 428.00,505.69 428.00,505.17 C428.00,504.65 427.24,504.28 426.30,504.36 C425.07,504.46 424.39,503.39 423.84,500.50 C422.40,492.94 421.36,490.50 419.65,490.64 C418.74,490.72 418.00,490.35 418.00,489.82 C418.00,489.29 417.31,488.17 416.47,487.32 C415.62,486.48 415.19,484.97 415.51,483.98 C416.22,481.73 414.43,480.50 410.46,480.50 L 407.41 480.50 L 415.07 491.50 C422.24,501.79 426.66,508.63 431.49,517.21 C420.76,498.82 407.26,479.63 390.53,458.73 C394.35,463.49 398.17,468.36 400.35,471.25 C403.55,475.51 406.39,479.00 406.65,479.00 C406.91,479.00 406.84,478.55 406.50,478.00 C406.16,477.45 406.41,477.00 407.05,477.00 C407.76,477.00 407.94,476.32 407.52,475.25 C407.13,474.29 406.70,472.56 406.56,471.40 C406.19,468.31 405.12,467.02 403.47,467.65 C402.55,468.00 402.00,467.61 402.00,466.61 C402.00,465.72 401.59,465.00 401.10,465.00 C400.60,465.00 399.72,463.64 399.14,461.98 C398.56,460.32 396.72,458.18 395.05,457.23 C393.38,456.28 392.01,454.78 392.01,453.90 C392.00,451.63 388.48,448.75 385.70,448.75 C383.71,448.75 383.36,448.29 383.51,445.79 C383.73,442.19 381.97,440.23 378.84,440.58 C377.55,440.72 376.39,440.87 376.26,440.92 C376.15,440.95 378.93,444.48 382.78,449.21 C376.54,441.64 369.44,433.29 358.58,420.74 C361.85,424.50 364.61,427.68 366.38,429.75 C371.27,435.42 375.47,439.86 375.73,439.61 C375.98,439.36 375.83,438.10 375.40,436.83 C374.96,435.55 374.74,433.83 374.90,433.00 C375.06,432.17 374.84,431.85 374.41,432.27 C373.45,433.21 366.87,427.01 367.60,425.84 C367.88,425.38 367.61,425.00 367.00,425.00 C366.39,425.00 366.16,424.55 366.50,424.01 C366.84,423.46 364.95,420.96 362.31,418.46 C359.15,415.48 357.61,413.25 357.81,411.96 C358.05,410.47 357.55,410.00 355.74,410.00 C353.15,410.00 349.01,406.24 348.61,403.54 C348.47,402.62 347.27,401.31 345.93,400.63 C344.59,399.95 343.61,398.71 343.75,397.87 C344.06,396.02 340.24,392.34 337.50,391.83 C335.97,391.55 335.50,390.68 335.50,388.10 C335.50,385.11 335.17,384.69 332.58,384.41 C330.97,384.24 328.72,383.12 327.58,381.91 C326.43,380.71 326.17,380.10 327.00,380.55 C328.33,381.29 328.33,381.18 327.00,379.52 C324.66,376.61 319.67,370.84 317.83,368.91 C316.91,367.95 316.01,366.11 315.83,364.83 C315.62,363.35 314.72,362.39 313.37,362.20 C310.51,361.79 302.81,355.11 303.65,353.76 C304.04,353.13 303.84,352.98 303.15,353.40 C301.96,354.14 301.90,354.03 301.51,350.23 C301.27,347.94 298.07,343.60 297.23,344.43 C296.45,345.21 294.23,342.56 294.68,341.38 C294.92,340.76 294.53,339.64 293.81,338.88 C291.74,336.69 287.29,330.58 287.16,329.73 C286.83,327.57 280.12,320.80 279.01,321.50 C277.88,322.20 278.28,316.98 279.51,314.99 C280.07,314.07 279.92,313.93 278.98,314.51 C278.05,315.09 277.83,314.88 278.24,313.81 C278.67,312.68 278.22,312.36 276.47,312.55 C273.85,312.84 271.00,309.46 271.00,306.07 C271.00,304.97 270.10,303.59 269.00,303.00 C267.90,302.41 267.00,301.33 267.00,300.59 C267.00,299.85 266.33,298.68 265.50,298.00 C264.67,297.32 264.00,295.91 264.00,294.88 C264.00,293.84 263.62,293.00 263.17,293.00 C262.25,293.00 261.97,291.30 262.00,286.00 C262.02,283.42 261.77,282.89 261.07,283.97 C260.27,285.20 259.78,285.06 258.06,283.07 C256.01,280.70 254.02,275.10 254.01,271.66 C254.00,270.64 253.10,269.58 252.00,269.29 C250.90,269.00 250.00,267.95 250.00,266.94 C250.00,265.94 249.60,264.87 249.11,264.57 C248.63,264.27 247.87,262.33 247.44,260.26 C247.01,258.19 246.60,256.27 246.53,256.00 C246.46,255.73 246.08,253.87 245.69,251.89 C245.29,249.90 244.01,247.43 242.86,246.39 L 241.08 244.80 C238.95,235.39 237.37,225.10 236.55,215.72 L 237.05 208.22 C237.47,202.01 237.44,195.71 236.99,194.22 C236.48,192.53 236.19,196.78 236.23,205.50 L 236.26 212.04 C235.63,202.70 235.83,194.57 237.08,189.61 C237.67,187.26 238.01,183.80 237.83,181.92 L 237.64 179.92 C237.83,180.02 237.98,180.26 238.11,180.59 C238.87,182.52 239.07,182.20 239.48,178.40 C239.67,176.72 239.19,176.32 237.11,176.42 C233.55,176.58 232.52,177.38 230.56,181.51 C229.50,183.75 228.28,184.96 227.25,184.78 C226.10,184.58 225.35,185.61 224.71,188.25 C224.21,190.31 223.40,192.06 222.90,192.12 C221.51,192.32 220.67,192.54 218.50,193.29 C216.88,193.84 216.50,194.88 216.48,198.74 C216.45,203.29 216.34,203.49 213.82,203.19 C210.82,202.84 210.31,203.40 209.51,207.92 C208.75,212.25 208.74,212.31 208.88,213.75 C209.08,215.88 210.80,215.23 212.68,212.63 C209.99,217.21 208.52,220.09 205.17,227.64 C205.56,226.70 206.01,225.66 206.50,224.59 C209.50,218.03 209.51,218.00 207.06,218.00 C204.67,218.00 203.86,219.15 204.98,220.96 C205.50,221.81 205.26,222.88 204.35,223.79 C203.55,224.60 203.13,225.90 203.43,226.68 C203.73,227.47 203.54,227.83 202.99,227.49 C202.44,227.16 202.00,227.32 202.00,227.86 C202.00,228.40 201.73,229.55 201.39,230.42 C200.99,231.46 201.34,232.00 202.39,232.00 C202.75,232.00 203.07,231.93 203.34,231.81 C202.70,233.31 202.03,235.08 201.35,237.03 C201.44,236.55 201.46,236.24 201.40,236.15 C201.25,235.96 199.97,236.64 198.54,237.65 C196.49,239.11 196.01,240.18 196.27,242.75 C196.45,244.54 196.29,246.00 195.91,246.00 C194.81,246.00 194.01,248.85 194.64,250.50 C194.95,251.32 195.57,252.00 196.00,252.00 C196.30,252.00 197.28,249.64 198.34,246.74 C196.28,254.07 194.55,261.86 193.94,267.06 C192.18,282.18 193.20,301.84 196.44,315.46 C196.48,315.61 196.52,315.76 196.55,315.90 C196.23,314.58 195.88,313.12 195.49,311.50 C194.85,308.83 194.69,308.72 194.01,310.50 C193.59,311.60 193.68,313.32 194.20,314.31 C194.83,315.53 194.75,316.60 193.95,317.56 C193.04,318.66 193.03,319.00 193.94,319.00 C194.59,319.00 194.84,319.45 194.50,320.00 C194.16,320.55 194.30,321.00 194.81,321.00 C195.36,321.00 195.40,322.72 194.91,325.25 C193.82,330.88 193.84,331.80 195.00,330.00 C195.84,328.71 195.97,328.73 195.98,330.18 C195.99,331.11 196.88,332.14 197.95,332.48 C199.02,332.82 200.18,333.98 200.52,335.05 C200.86,336.12 201.55,337.00 202.05,337.00 C202.56,337.00 202.10,334.64 201.04,331.75 C199.74,328.19 198.92,325.49 197.26,318.78 C199.01,325.75 200.65,330.80 204.36,340.72 L 204.33 340.65 C203.56,339.19 202.55,338.00 202.08,338.00 C200.52,338.00 200.21,341.85 201.61,343.85 C202.69,345.40 202.73,345.94 201.75,346.34 C201.06,346.62 200.96,346.88 201.53,346.92 C202.09,346.96 203.27,346.17 204.14,345.15 C204.90,344.26 205.25,343.68 205.20,342.95 C205.27,343.13 205.34,343.32 205.40,343.50 C206.19,345.59 207.60,348.62 209.36,352.08 C207.98,349.67 206.74,348.01 206.25,348.01 C205.56,348.00 205.00,348.45 205.00,349.00 C205.00,349.55 205.48,350.00 206.06,350.00 C206.64,350.00 206.86,350.41 206.55,350.91 C206.24,351.42 206.52,352.01 207.16,352.22 C207.81,352.44 208.45,354.61 208.60,357.06 C209.01,364.12 209.15,366.41 210.28,367.13 C210.82,367.48 211.59,367.46 212.74,367.45 L 212.75 367.44 C214.54,367.41 216.06,367.75 216.12,368.19 C216.19,368.64 216.36,369.45 216.50,370.00 C216.64,370.55 216.81,371.88 216.88,372.97 C216.94,374.05 218.40,376.52 220.10,378.47 C223.09,381.86 225.58,383.60 222.98,380.48 C221.92,379.20 221.99,379.06 223.36,379.58 C224.26,379.93 225.00,379.99 225.00,379.71 C225.00,379.44 222.64,375.43 219.75,370.80 C217.08,366.51 213.50,360.17 211.46,356.12 C214.98,362.74 219.28,370.14 222.79,375.45 C233.14,391.10 244.18,404.27 260.75,420.75 L 261.68 421.68 C254.12,414.21 245.35,405.02 241.97,401.00 C238.50,396.88 235.18,393.27 234.58,393.00 C233.99,392.73 233.40,391.96 233.27,391.31 C232.97,389.77 226.80,381.00 226.02,381.00 C225.69,381.00 225.36,381.91 225.27,383.02 C225.19,384.13 225.49,384.82 225.94,384.54 C226.38,384.26 226.75,385.25 226.75,386.73 C226.75,388.21 227.26,389.59 227.88,389.79 C228.50,390.00 228.72,390.65 228.35,391.24 C227.99,391.83 228.14,392.03 228.68,391.70 C230.15,390.79 234.22,393.99 233.61,395.57 C233.04,397.07 238.70,403.30 239.94,402.53 C240.37,402.27 240.60,403.17 240.45,404.53 C240.30,405.89 240.61,407.00 241.13,407.00 C242.60,407.00 251.43,416.92 252.02,419.23 C252.31,420.36 254.08,422.11 255.96,423.12 C257.85,424.13 261.70,427.33 264.52,430.23 C269.99,435.85 274.55,442.07 272.08,440.55 C271.01,439.89 270.82,440.08 271.30,441.34 C271.66,442.29 271.45,443.00 270.80,443.00 C270.18,443.00 269.97,443.30 270.34,443.67 C270.70,444.04 270.29,445.13 269.41,446.10 C267.23,448.51 265.15,454.85 265.76,457.21 C266.34,459.42 267.11,458.79 268.87,454.45 C264.11,467.18 261.80,475.98 257.79,495.51 C257.66,495.18 257.42,495.00 257.07,495.00 C255.77,495.00 254.71,498.73 255.61,500.17 C256.06,500.90 256.46,500.81 256.91,499.87 C255.71,507.07 255.62,526.22 256.65,536.83 C256.64,536.80 256.64,536.78 256.63,536.75 C256.30,535.51 255.99,533.38 255.93,532.00 C255.88,530.44 255.63,530.06 255.27,531.00 C254.96,531.83 254.32,532.75 253.85,533.06 C253.39,533.36 253.57,534.82 254.25,536.30 C255.39,538.74 256.63,539.54 256.83,538.46 C256.89,539.00 256.96,539.52 257.03,540.00 C258.86,552.18 261.51,562.08 266.08,573.17 C265.93,572.84 265.73,572.45 265.49,571.98 C264.69,570.43 262.95,565.43 261.64,560.87 C260.32,556.31 258.80,552.43 258.26,552.25 C256.95,551.82 255.80,560.61 256.88,562.79 C258.14,565.32 260.17,571.32 260.26,572.75 C260.30,573.44 260.54,573.80 260.79,573.55 C261.03,573.30 261.87,573.73 262.65,574.51 C263.42,575.28 264.71,575.67 265.50,575.36 C266.40,575.02 266.66,574.70 266.27,573.65 C267.72,577.14 269.37,580.76 271.23,584.60 L 270.39 582.92 C268.43,579.02 266.65,576.02 266.42,576.25 C266.19,576.48 265.83,578.11 265.63,579.87 C265.42,581.64 265.47,582.86 265.73,582.60 C266.86,581.47 270.24,585.99 269.72,587.95 C269.29,589.59 269.66,590.00 271.57,590.00 L 273.94 590.00 L 273.08 588.27 C274.76,591.50 276.60,594.74 278.64,598.02 C276.67,595.13 275.04,593.05 274.69,593.03 C274.25,593.01 274.14,593.42 274.46,593.93 C274.77,594.44 274.59,595.13 274.05,595.47 C273.43,595.85 273.42,596.97 274.03,598.57 C274.55,599.94 274.93,601.39 274.87,601.78 C274.50,604.23 275.17,605.87 276.34,605.42 C278.01,604.78 280.20,607.32 280.51,610.27 C280.64,611.50 280.80,613.04 280.87,613.69 C280.94,614.35 281.96,614.70 283.13,614.47 C285.54,614.01 289.86,616.93 289.29,618.64 C289.08,619.26 289.58,620.44 290.41,621.26 C291.23,622.09 291.63,623.04 291.29,623.38 C290.95,623.72 291.10,624.00 291.63,624.00 C292.17,624.00 293.17,623.44 293.86,622.75 C294.87,621.75 294.99,621.83 294.49,623.16 C293.61,625.48 296.63,630.91 299.39,631.96 C300.65,632.44 302.26,634.22 302.97,635.92 C303.67,637.61 304.70,639.00 305.27,639.00 C305.83,639.00 310.02,642.71 314.57,647.25 C319.13,651.79 324.65,657.06 326.85,658.97 C329.05,660.88 330.66,662.75 330.43,663.12 C330.20,663.49 331.81,664.51 334.01,665.39 C338.17,667.05 338.73,667.87 336.93,669.67 C336.17,670.43 336.68,670.65 338.68,670.43 C342.15,670.05 346.29,673.52 345.46,676.12 C345.10,677.27 345.65,678.28 347.07,679.04 C348.75,679.93 349.07,679.93 348.50,679.00 C347.94,678.10 348.24,678.06 349.71,678.85 C352.27,680.21 353.70,682.03 354.15,684.50 C354.37,685.65 355.79,686.92 357.51,687.50 C359.16,688.05 360.50,689.17 360.50,690.00 C360.50,690.83 361.25,691.44 362.17,691.37 C363.09,691.31 363.64,691.79 363.38,692.45 C363.13,693.10 364.07,694.17 365.48,694.81 C366.88,695.45 368.56,697.13 369.21,698.55 C369.99,700.27 370.96,700.98 372.13,700.68 C373.09,700.43 374.80,700.87 375.94,701.67 C377.07,702.46 378.57,702.79 379.25,702.40 C379.94,702.00 380.20,702.02 379.82,702.43 C379.45,702.85 380.35,704.55 381.82,706.22 C383.30,707.88 384.40,709.60 384.28,710.03 C384.16,710.46 385.28,710.68 386.76,710.52 C389.57,710.21 394.48,713.26 394.52,715.34 C394.53,715.98 395.25,716.38 396.11,716.24 C396.97,716.10 398.16,717.05 398.75,718.36 C399.35,719.66 402.01,722.48 404.67,724.62 C407.33,726.75 409.73,728.78 410.00,729.12 C410.27,729.45 411.40,730.01 412.50,730.36 C414.86,731.11 418.45,736.76 418.12,739.22 C417.97,740.31 418.73,741.11 420.19,741.40 C421.46,741.66 423.64,742.11 425.04,742.40 C426.51,742.71 429.01,744.84 430.97,747.47 C432.84,749.96 434.74,752.00 435.19,752.00 C436.32,752.00 439.53,755.32 440.27,757.27 C440.62,758.17 442.34,759.64 444.11,760.56 C445.88,761.47 448.49,763.30 449.91,764.62 C451.40,766.00 452.65,766.55 452.86,765.91 C453.07,765.30 455.41,766.95 458.07,769.57 C460.73,772.19 462.64,774.78 462.30,775.32 C461.97,775.87 462.15,776.03 462.70,775.69 C463.26,775.34 464.79,776.25 466.10,777.69 C467.42,779.14 467.94,780.00 467.25,779.60 C465.70,778.71 465.61,780.21 467.12,781.72 C467.74,782.34 468.94,782.58 469.79,782.25 C470.88,781.83 471.09,782.04 470.51,782.98 C470.00,783.81 470.08,784.07 470.72,783.67 C471.33,783.30 472.00,784.61 472.37,786.88 C472.83,789.78 473.83,791.31 476.44,793.10 C478.35,794.41 480.26,796.22 480.70,797.14 C481.14,798.06 483.34,800.33 485.59,802.19 ZM 461.18 590.39 C461.28,591.55 461.53,590.33 461.74,587.67 C461.95,585.02 461.70,582.32 461.19,581.67 C460.26,580.50 460.32,579.46 461.57,575.25 C461.98,573.86 461.81,573.00 461.12,573.00 C460.50,573.00 460.00,572.30 460.00,571.44 C460.00,570.58 459.55,570.16 459.00,570.50 C458.45,570.84 458.00,570.47 458.00,569.68 C458.00,568.89 457.33,567.69 456.51,567.01 C455.69,566.33 455.28,565.35 455.60,564.84 C455.91,564.33 455.67,563.31 455.07,562.58 C454.46,561.85 453.75,559.13 453.49,556.54 C453.01,551.84 451.11,546.81 451.02,550.00 C450.98,551.31 450.85,551.32 450.04,550.03 C449.53,549.22 448.87,548.80 448.58,549.09 C448.28,549.38 449.61,553.60 451.52,558.47 C455.08,567.55 460.86,586.64 461.18,590.39 ZM 783.44 318.49 C782.70,321.33 782.75,321.39 784.40,319.74 C785.36,318.78 786.56,318.00 787.07,318.00 C787.58,318.00 788.00,317.07 788.00,315.94 C788.00,314.77 788.45,314.16 789.04,314.53 C789.74,314.96 789.99,311.91 789.79,305.18 C789.63,299.69 789.19,295.39 788.81,295.62 C788.43,295.85 787.94,294.12 787.73,291.77 C787.43,288.45 787.30,288.94 787.14,294.00 C786.94,300.10 785.18,311.73 783.44,318.49 ZM 258.15 479.55 C258.19,484.30 258.54,487.80 258.93,487.34 C259.33,486.88 260.47,482.90 261.47,478.50 C262.47,474.10 264.10,468.14 265.09,465.25 C266.08,462.36 266.67,460.00 266.40,460.00 C264.77,460.00 260.90,465.36 261.15,467.27 C261.49,469.88 260.25,472.27 258.97,471.48 C258.47,471.17 258.11,474.74 258.15,479.55 ZM 702.88 596.69 L 700.91 599.88 L 703.08 599.72 C704.27,599.63 705.97,598.42 706.85,597.03 C707.73,595.64 708.72,594.28 709.05,594.00 C710.33,592.92 710.97,589.72 710.37,587.35 C709.77,584.94 709.65,585.01 707.29,589.17 C705.95,591.55 703.96,594.94 702.88,596.69 ZM 513.92 613.42 C514.04,619.05 514.97,617.28 516.06,609.36 C516.58,605.59 517.27,601.26 517.58,599.75 C518.02,597.67 517.78,597.00 516.58,597.00 C515.45,597.00 515.00,597.97 515.00,600.44 C515.00,602.33 514.62,604.11 514.16,604.40 C513.70,604.68 513.44,605.95 513.58,607.21 C513.72,608.47 513.87,611.26 513.92,613.42 ZM 516.89 593.92 C517.05,597.35 517.91,596.03 519.53,589.90 C521.06,584.09 520.85,583.00 518.64,585.22 C517.20,586.66 516.68,589.26 516.89,593.92 ZM 255.72 547.25 C257.82,549.57 258.45,548.23 257.54,543.37 C256.99,540.45 256.64,540.06 255.44,541.05 C253.52,542.64 253.62,544.93 255.72,547.25 ZM 296.66 622.42 C310.85,639.12 330.06,657.57 356.08,679.72 C350.82,675.47 346.76,672.35 345.67,671.75 C343.93,670.79 342.64,669.75 342.80,669.45 C342.97,669.14 337.34,663.59 330.30,657.11 C317.27,645.12 305.97,633.47 296.66,622.42 ZM 269.72 452.20 C270.33,450.35 270.46,449.00 269.99,449.00 C269.45,449.00 269.00,448.55 269.00,448.00 C269.00,447.45 269.50,447.11 270.10,447.25 C270.71,447.39 272.34,444.91 273.73,441.75 L 274.46 440.08 L 271.64 447.25 C270.96,448.98 270.32,450.63 269.72,452.20 ZM 634.07 595.09 C646.10,578.74 653.24,562.86 656.49,545.75 C653.16,563.29 646.66,578.46 634.07,595.09 ZM 531.28 759.94 C547.48,744.54 565.34,729.13 597.50,702.55 C569.96,725.31 548.53,743.84 531.28,759.94 ZM 720.35 483.61 C720.51,483.69 720.72,483.67 720.94,483.54 C721.46,483.22 721.80,483.98 721.70,485.23 C721.61,486.40 721.89,490.12 722.32,493.74 C721.75,490.39 721.09,487.00 720.35,483.61 ZM 459.02 773.52 C459.72,774.36 460.49,774.84 460.74,774.59 C461.44,773.90 460.03,772.00 458.82,772.00 C458.16,772.00 458.23,772.57 459.02,773.52 ZM 566.36 564.64 C560.51,573.58 553.17,585.45 548.78,593.33 C554.12,583.53 559.97,573.98 566.36,564.64 ZM 437.24 748.35 C455.67,764.75 467.44,776.54 479.53,789.99 C468.20,777.39 454.42,763.81 437.24,748.35 ZM 247.01 264.74 C254.53,284.94 264.59,303.81 280.84,326.71 C264.43,303.66 254.35,284.78 247.01,264.74 ZM 332.01 478.11 C330.69,478.19 329.84,479.71 328.86,483.02 C329.55,480.21 330.00,478.35 330.00,478.27 C330.00,477.77 330.87,477.78 332.01,478.11 ZM 651.36 481.86 C650.64,479.55 649.89,477.55 649.63,477.29 C649.17,476.83 642.87,481.87 635.11,488.64 C642.50,482.14 648.69,477.00 649.39,477.00 C649.74,477.00 650.61,479.35 651.36,481.86 ZM 770.63 217.26 L 770.77 217.56 C766.92,210.11 760.03,199.60 754.12,191.60 C760.29,199.88 767.43,210.69 770.63,217.26 ZM 756.59 377.56 C746.78,392.18 734.97,406.11 719.79,421.17 C734.54,406.54 746.77,392.07 756.59,377.56 ZM 677.79 355.94 C678.58,354.81 679.60,353.54 680.24,352.89 C682.33,350.78 688.80,342.19 695.37,333.02 C688.78,342.27 682.35,350.91 681.08,352.00 C680.87,352.18 679.57,353.74 677.79,355.94 ZM 355.47 605.96 C360.12,611.27 365.52,616.87 372.00,623.08 C367.70,619.02 364.14,615.50 361.58,612.76 C359.45,610.48 357.42,608.22 355.47,605.96 ZM 613.99 508.13 C605.80,516.23 596.73,526.02 588.60,535.50 C596.41,526.26 604.86,517.16 613.99,508.13 ZM 403.63 651.35 C410.01,656.78 417.02,662.65 424.74,669.05 C417.69,663.28 410.53,657.26 403.63,651.35 ZM 392.46 535.70 C387.56,529.88 382.32,523.96 376.67,517.87 C377.21,518.44 377.74,519.00 378.24,519.55 C383.18,524.87 387.92,530.26 392.46,535.70 ZM 705.02 436.63 C705.18,437.30 706.33,440.40 707.88,444.38 C706.26,440.47 705.00,437.13 705.00,436.70 C705.00,436.68 705.01,436.66 705.02,436.63 ZM 215.20 208.43 C217.86,203.92 221.27,198.86 224.88,194.01 C221.59,198.45 218.41,203.19 215.20,208.43 ZM 558.23 667.36 C544.97,678.68 534.49,687.99 525.86,696.19 C534.58,687.89 545.10,678.54 558.23,667.36 ZM 787.17 275.88 C787.18,276.28 787.19,276.65 787.20,276.99 C787.01,273.33 786.66,269.68 786.18,266.03 C786.70,269.82 787.10,273.70 787.17,275.88 Z" fill="rgb(254,254,254)"/>
<path d="M 485.59 802.19 C483.34,800.33 481.14,798.06 480.70,797.14 C480.26,796.22 478.35,794.41 476.44,793.10 C473.83,791.31 472.83,789.78 472.37,786.88 C472.00,784.61 471.33,783.30 470.72,783.67 C470.08,784.07 470.00,783.81 470.51,782.98 C471.09,782.04 470.88,781.83 469.79,782.25 C468.94,782.58 467.74,782.34 467.12,781.72 C465.61,780.21 465.70,778.71 467.25,779.60 C467.94,780.00 467.42,779.14 466.10,777.69 C464.79,776.25 463.26,775.34 462.70,775.69 C462.15,776.03 461.97,775.87 462.30,775.32 C462.64,774.78 460.73,772.19 458.07,769.57 C455.41,766.95 453.07,765.30 452.86,765.91 C452.65,766.55 451.40,766.00 449.91,764.62 C448.49,763.30 445.88,761.47 444.11,760.56 C442.34,759.64 440.62,758.17 440.27,757.27 C439.53,755.32 436.32,752.00 435.19,752.00 C434.74,752.00 432.84,749.96 430.97,747.47 C429.01,744.84 426.51,742.71 425.04,742.40 C423.64,742.11 421.46,741.66 420.19,741.40 C418.73,741.11 417.97,740.31 418.12,739.22 C418.45,736.76 414.86,731.11 412.50,730.36 C411.40,730.01 410.27,729.45 410.00,729.12 C409.73,728.78 407.33,726.75 404.67,724.62 C402.01,722.48 399.35,719.66 398.75,718.36 C398.16,717.05 396.97,716.10 396.11,716.24 C395.25,716.38 394.53,715.98 394.52,715.34 C394.48,713.26 389.57,710.21 386.76,710.52 C385.28,710.68 384.16,710.46 384.28,710.03 C384.40,709.60 383.30,707.88 381.82,706.22 C380.35,704.55 379.45,702.85 379.82,702.43 C380.20,702.02 379.94,702.00 379.25,702.40 C378.57,702.79 377.07,702.46 375.94,701.67 C374.80,700.87 373.09,700.43 372.13,700.68 C370.96,700.98 369.99,700.27 369.21,698.55 C368.56,697.13 366.88,695.45 365.48,694.81 C364.07,694.17 363.13,693.10 363.38,692.45 C363.64,691.79 363.09,691.31 362.17,691.37 C361.25,691.44 360.50,690.83 360.50,690.00 C360.50,689.17 359.16,688.05 357.51,687.50 C355.79,686.92 354.37,685.65 354.15,684.50 C353.70,682.03 352.27,680.21 349.71,678.85 C348.24,678.06 347.94,678.10 348.50,679.00 C349.07,679.93 348.75,679.93 347.07,679.04 C345.65,678.28 345.10,677.27 345.46,676.12 C346.29,673.52 342.15,670.05 338.68,670.43 C336.68,670.65 336.17,670.43 336.93,669.67 C338.73,667.87 338.17,667.05 334.01,665.39 C331.81,664.51 330.20,663.49 330.43,663.12 C330.66,662.75 329.05,660.88 326.85,658.97 C324.65,657.06 319.13,651.79 314.57,647.25 C310.02,642.71 305.83,639.00 305.27,639.00 C304.70,639.00 303.67,637.61 302.97,635.92 C302.26,634.22 300.65,632.44 299.39,631.96 C296.63,630.91 293.61,625.48 294.49,623.16 C294.99,621.83 294.87,621.75 293.86,622.75 C293.17,623.44 292.17,624.00 291.63,624.00 C291.10,624.00 290.95,623.72 291.29,623.38 C291.63,623.04 291.23,622.09 290.41,621.26 C289.58,620.44 289.08,619.26 289.29,618.64 C289.86,616.93 285.54,614.01 283.13,614.47 C281.96,614.70 280.94,614.35 280.87,613.69 C280.80,613.04 280.64,611.50 280.51,610.27 C280.20,607.32 278.01,604.78 276.34,605.42 C275.17,605.87 274.50,604.23 274.87,601.78 C274.93,601.39 274.55,599.94 274.03,598.57 C273.42,596.97 273.43,595.85 274.05,595.47 C274.59,595.13 274.77,594.44 274.46,593.93 C274.14,593.42 274.25,593.01 274.69,593.03 C275.14,593.05 277.67,596.44 280.32,600.57 C291.26,617.59 308.30,636.87 330.30,657.11 C337.34,663.59 342.97,669.14 342.80,669.45 C342.64,669.75 343.93,670.79 345.67,671.75 C347.42,672.71 356.87,680.22 366.67,688.43 C376.48,696.65 392.60,710.12 402.50,718.38 C437.05,747.19 461.42,769.84 479.53,789.99 L 490.40 802.08 L 497.34 794.29 C518.57,770.43 548.26,743.24 597.50,702.55 C651.80,657.69 673.63,636.96 691.28,613.52 C696.25,606.91 700.59,601.72 700.91,602.00 C701.24,602.28 701.32,602.95 701.10,603.50 C700.88,604.05 700.67,605.27 700.63,606.20 C700.60,607.14 700.39,607.72 700.16,607.49 C699.45,606.79 694.04,615.40 694.02,617.25 C694.01,618.21 693.50,619.00 692.89,619.00 C692.28,619.00 692.06,619.73 692.40,620.61 C692.83,621.72 692.59,622.06 691.63,621.69 C689.20,620.75 685.92,623.87 686.22,626.82 C686.47,629.21 686.17,629.50 683.38,629.50 C681.29,629.50 680.41,629.91 680.73,630.75 C681.00,631.44 680.79,632.00 680.27,632.00 C679.76,632.00 679.27,632.56 679.19,633.25 C679.11,633.94 678.92,635.62 678.77,637.00 C678.59,638.70 677.86,639.53 676.50,639.60 C672.61,639.80 672.23,640.03 671.02,642.96 C669.87,645.73 664.14,648.88 661.58,648.15 C661.08,648.00 661.11,648.48 661.65,649.19 C662.20,649.91 662.70,651.49 662.76,652.69 C662.84,654.31 662.45,654.73 661.27,654.27 C660.22,653.87 659.92,654.05 660.39,654.82 C660.85,655.56 660.58,655.78 659.65,655.42 C658.81,655.10 656.75,656.21 654.84,658.01 C653.01,659.75 652.17,660.87 653.00,660.50 C653.83,660.13 653.39,660.73 652.02,661.84 C650.66,662.94 649.31,663.77 649.02,663.67 C648.74,663.58 648.30,663.95 648.06,664.50 C647.25,666.34 643.52,669.87 642.05,670.18 C641.26,670.36 639.63,671.40 638.43,672.50 C636.75,674.05 636.51,674.82 637.38,675.94 C638.28,677.09 638.16,677.25 636.76,676.72 C635.65,676.31 634.18,676.88 632.72,678.29 C631.45,679.50 628.86,681.60 626.96,682.96 C625.06,684.31 623.05,685.76 622.50,686.19 C616.66,690.74 615.08,692.32 615.57,693.12 C615.89,693.63 615.78,693.97 615.32,693.88 C613.33,693.48 608.18,696.30 607.05,698.41 C606.37,699.68 604.28,701.45 602.41,702.34 C600.53,703.24 599.00,704.40 599.00,704.93 C599.00,706.42 594.06,711.40 593.32,710.65 C592.44,709.77 589.00,712.96 589.00,714.65 C589.00,715.39 588.38,716.00 587.62,716.00 C586.86,716.00 585.69,716.67 585.01,717.49 C584.33,718.31 583.41,718.76 582.98,718.48 C582.54,718.21 580.39,720.02 578.21,722.50 C576.03,724.97 573.85,727.01 573.37,727.01 C572.89,727.02 570.50,728.84 568.05,731.04 C565.60,733.25 563.06,734.85 562.41,734.61 C561.76,734.36 560.39,735.72 559.37,737.64 C558.14,739.95 556.56,741.33 554.75,741.69 C553.24,742.00 551.95,742.76 551.89,743.38 C551.83,743.99 551.71,745.85 551.64,747.50 C551.54,749.71 550.97,750.55 549.50,750.70 C544.49,751.20 541.63,752.59 542.55,754.08 C543.87,756.21 541.86,758.88 538.70,759.19 C536.47,759.41 535.50,760.02 535.50,761.21 C535.50,762.14 533.95,764.06 532.06,765.46 C528.18,768.32 527.55,768.56 528.63,766.75 C529.17,765.86 528.91,765.88 527.74,766.84 C526.83,767.57 525.66,767.91 525.13,767.58 C524.61,767.26 522.82,769.20 521.15,771.91 C519.49,774.61 517.24,777.11 516.16,777.45 C515.07,777.79 513.93,778.73 513.62,779.54 C513.32,780.34 512.44,781.00 511.68,781.00 C510.65,781.00 510.36,782.28 510.55,786.00 C510.82,791.09 510.37,791.61 506.24,791.07 C505.55,790.98 504.09,792.43 502.99,794.30 C501.89,796.16 499.87,798.20 498.49,798.82 C496.35,799.80 495.37,801.31 496.25,802.27 C496.39,802.43 495.86,803.23 495.09,804.06 C492.88,806.42 490.03,805.86 485.59,802.19 ZM 459.02 773.52 C458.23,772.57 458.16,772.00 458.82,772.00 C460.03,772.00 461.44,773.90 460.74,774.59 C460.49,774.84 459.72,774.36 459.02,773.52 ZM 484.76 728.75 C481.75,724.76 476.29,718.18 472.63,714.11 C467.55,708.48 466.24,706.42 467.06,705.42 C468.73,703.42 471.25,704.90 470.74,707.58 C470.15,710.68 471.12,711.97 474.51,712.59 C478.69,713.35 479.16,713.87 478.81,717.35 C478.56,719.90 478.88,720.53 480.50,720.67 C486.57,721.19 487.98,721.53 487.88,722.47 C487.56,725.37 488.19,726.82 489.97,727.28 C491.47,727.67 492.51,726.81 494.37,723.65 C495.72,721.37 499.75,716.50 503.33,712.84 C506.92,709.18 509.56,705.89 509.20,705.54 C508.85,705.18 509.22,705.15 510.03,705.46 C510.89,705.79 512.06,705.14 512.83,703.91 C513.55,702.74 513.67,702.09 513.09,702.45 C512.43,702.85 512.26,702.49 512.64,701.49 C512.98,700.61 513.85,700.11 514.58,700.39 C515.47,700.73 515.70,700.35 515.29,699.20 C514.96,698.26 515.05,697.83 515.49,698.23 C516.36,699.02 521.00,694.55 521.00,692.93 C521.00,692.40 522.44,691.10 524.20,690.03 C526.70,688.50 527.70,688.34 528.82,689.26 C529.96,690.21 530.70,689.87 532.56,687.53 C533.84,685.93 534.69,684.30 534.45,683.92 C534.22,683.54 534.66,682.69 535.45,682.04 C536.23,681.39 537.16,679.57 537.50,677.99 C537.88,676.26 538.63,675.31 539.38,675.59 C540.07,675.86 541.43,675.18 542.41,674.10 C543.39,673.02 544.76,672.36 545.46,672.62 C546.17,672.89 548.27,671.27 550.14,669.01 C552.46,666.23 554.51,664.80 556.53,664.57 C558.16,664.38 559.89,664.18 560.36,664.11 C560.83,664.05 560.97,663.37 560.68,662.61 C560.20,661.36 563.73,657.00 565.21,657.00 C565.53,657.00 568.65,654.23 572.15,650.85 C575.64,647.47 577.83,645.09 577.00,645.56 C575.75,646.27 575.78,646.00 577.13,643.96 C578.30,642.19 579.71,641.48 582.13,641.42 C587.32,641.31 588.17,641.08 587.50,640.00 C587.16,639.45 587.36,639.00 587.94,639.00 C588.52,639.00 588.89,638.66 588.75,638.25 C588.61,637.84 588.85,637.40 589.29,637.29 C591.03,636.81 593.16,633.85 593.62,631.26 C594.48,626.47 597.31,625.08 600.14,628.06 C601.68,629.68 601.52,630.05 597.64,633.77 C595.37,635.97 583.15,646.42 570.50,657.01 C529.63,691.21 510.77,709.42 496.22,728.75 C493.21,732.74 490.64,736.00 490.50,736.00 C490.36,736.00 487.78,732.74 484.76,728.75 ZM 457.49 698.17 C454.19,695.04 447.00,688.30 441.50,683.20 C433.68,675.94 432.04,673.99 433.97,674.21 C435.37,674.38 437.30,675.79 438.47,677.50 C439.97,679.71 441.29,680.50 443.50,680.50 C446.24,680.50 446.53,680.82 446.81,684.25 C447.11,687.82 447.79,688.47 450.85,688.05 C451.65,687.94 451.90,688.35 451.48,689.03 C450.94,689.91 451.27,689.93 452.82,689.10 C455.13,687.86 455.70,688.45 455.44,691.82 C455.31,693.52 456.28,694.78 459.05,696.53 C462.33,698.60 464.93,702.40 463.83,703.51 C463.63,703.70 460.78,701.30 457.49,698.17 ZM 427.86 671.63 C369.55,623.45 350.78,604.50 336.41,579.29 C332.10,571.72 326.40,558.27 327.17,557.49 C327.39,557.28 328.68,557.66 330.03,558.35 C332.01,559.35 332.44,560.23 332.19,562.80 C331.99,564.80 332.49,566.63 333.51,567.65 C334.47,568.61 334.92,570.16 334.61,571.40 C333.94,574.07 335.03,575.86 337.54,576.25 C340.77,576.76 341.69,577.77 341.78,580.97 C341.87,584.04 344.47,588.53 348.69,592.89 C350.71,594.97 351.45,596.86 351.15,599.15 C351.06,599.82 355.94,601.45 357.22,601.17 C357.62,601.09 358.42,601.92 359.01,603.01 C359.59,604.10 359.81,605.00 359.50,605.00 C359.19,605.00 359.40,605.88 359.98,606.96 C360.56,608.04 361.61,608.70 362.31,608.43 C363.89,607.83 368.20,612.23 367.80,614.02 C367.63,614.74 368.62,615.61 369.99,615.95 C371.46,616.33 373.35,618.14 374.59,620.35 C375.75,622.41 378.23,624.87 380.10,625.80 C381.97,626.74 383.42,627.95 383.32,628.50 C383.09,629.81 386.06,633.08 386.97,632.52 C388.62,631.50 392.00,635.22 392.00,638.06 C392.00,639.68 392.34,641.06 392.75,641.13 C393.16,641.20 394.59,641.37 395.92,641.50 C397.25,641.63 398.83,642.38 399.42,643.16 C401.33,645.67 407.46,649.76 408.66,649.32 C409.30,649.09 410.08,649.33 410.41,649.85 C410.74,650.38 411.79,650.60 412.76,650.35 C414.19,649.98 414.52,650.53 414.51,653.20 C414.50,656.13 415.00,656.74 419.00,658.66 C421.48,659.85 423.51,661.43 423.53,662.16 C423.57,664.57 425.07,666.00 427.56,666.00 C429.30,666.00 430.00,666.55 430.00,667.93 C430.00,668.99 430.66,670.52 431.47,671.33 C433.95,673.81 430.81,674.07 427.86,671.63 ZM 464.49 646.36 C463.08,645.32 461.18,645.07 457.98,645.51 C454.01,646.05 453.18,645.82 451.07,643.57 C449.28,641.67 448.71,640.01 448.83,637.01 C448.94,634.14 448.58,633.00 447.56,633.00 C445.51,633.00 443.00,630.18 443.61,628.56 C443.91,627.80 443.44,625.81 442.57,624.14 C441.71,622.47 441.00,619.95 441.00,618.55 C441.00,613.14 443.68,616.47 448.01,627.26 L 452.51 638.50 L 458.51 641.69 C461.80,643.45 464.82,644.56 465.22,644.18 C465.61,643.79 466.06,638.30 466.22,631.98 C466.47,621.79 466.65,620.76 467.84,622.86 C468.61,624.20 468.81,625.59 468.31,626.09 C467.42,626.98 468.30,639.76 469.51,643.66 C470.46,646.69 467.26,648.40 464.49,646.36 ZM 513.15 647.11 C512.22,646.53 511.98,645.05 512.36,642.38 C512.67,640.25 512.94,634.56 512.96,629.75 C512.98,624.86 513.42,621.00 513.96,621.00 C514.53,621.00 514.83,625.65 514.71,632.41 C514.59,638.69 514.79,644.12 515.15,644.48 C516.16,645.50 528.02,639.13 528.67,637.21 C531.17,629.75 541.43,607.07 547.32,596.00 C554.08,583.28 572.89,553.80 575.13,552.42 C576.64,551.49 575.47,557.63 573.59,560.50 C572.73,561.82 572.30,563.63 572.65,564.52 C573.05,565.58 572.78,566.08 571.89,565.96 C568.99,565.55 568.00,566.06 568.00,567.95 C568.00,570.62 565.92,574.98 564.59,575.11 C563.99,575.16 562.60,575.28 561.50,575.36 C559.98,575.47 559.42,576.34 559.17,579.00 C558.99,580.92 558.20,582.86 557.42,583.30 C556.64,583.74 556.00,585.15 556.00,586.43 C556.00,587.76 555.02,589.42 553.71,590.27 C552.46,591.09 551.34,592.61 551.23,593.63 C550.67,599.07 549.24,605.22 549.06,603.00 C548.89,600.90 548.75,600.79 548.14,602.32 C547.75,603.33 546.99,604.16 546.46,604.16 C543.76,604.21 542.70,606.08 542.39,611.38 C542.08,616.43 541.62,617.47 538.02,621.10 C534.59,624.56 534.00,625.78 534.00,629.43 C534.00,634.18 532.29,640.00 530.90,640.00 C530.41,640.00 529.12,640.88 528.04,641.96 C525.55,644.45 518.62,648.00 516.29,647.98 C515.31,647.98 513.89,647.58 513.15,647.11 ZM 602.24 627.79 C601.27,626.62 601.80,625.57 605.02,622.22 C607.21,619.94 609.00,617.61 609.00,617.04 C609.00,616.47 609.34,616.10 609.75,616.23 C610.74,616.52 616.00,611.54 616.00,610.31 C616.00,608.71 626.45,598.37 629.57,596.88 C632.00,595.72 632.59,594.73 633.00,591.07 C633.43,587.24 633.89,586.53 636.50,585.68 C640.20,584.47 640.97,583.38 640.98,579.32 C640.99,577.57 641.56,575.55 642.25,574.82 C642.94,574.09 643.50,572.40 643.50,571.05 C643.50,569.25 644.17,568.43 646.00,568.00 C647.80,567.57 648.52,566.73 648.56,564.96 C648.61,562.60 651.24,554.30 653.03,550.87 C653.49,549.97 653.63,548.29 653.33,547.15 C653.01,545.94 653.46,544.40 654.39,543.46 C655.28,542.58 656.00,540.76 656.00,539.43 C656.00,538.09 656.45,537.00 657.00,537.00 C658.24,537.00 658.28,536.29 656.49,545.75 C651.78,570.59 638.85,592.83 614.70,617.66 C605.32,627.30 603.24,629.00 602.24,627.79 ZM 513.92 613.42 C513.87,611.26 513.72,608.47 513.58,607.21 C513.44,605.95 513.70,604.68 514.16,604.40 C514.62,604.11 515.00,602.33 515.00,600.44 C515.00,597.97 515.45,597.00 516.58,597.00 C517.78,597.00 518.02,597.67 517.58,599.75 C517.27,601.26 516.58,605.59 516.06,609.36 C514.97,617.28 514.04,619.05 513.92,613.42 ZM 464.68 610.28 C464.34,607.10 463.88,603.15 463.66,601.50 C463.44,599.85 463.48,599.16 463.74,599.96 C464.01,600.76 464.89,602.43 465.70,603.66 C466.51,604.90 466.84,606.45 466.43,607.11 C465.95,607.89 466.12,608.05 466.91,607.56 C467.81,607.00 468.04,607.92 467.81,611.07 C467.34,617.53 465.39,617.04 464.68,610.28 ZM 437.34 611.52 C436.78,610.92 436.38,609.24 436.44,607.78 C436.54,605.63 436.30,605.34 435.18,606.26 C434.06,607.19 433.86,606.86 434.08,604.45 C434.52,599.84 433.31,597.46 430.41,597.22 C428.99,597.10 427.47,596.79 427.04,596.53 C426.35,596.10 424.89,589.86 424.61,586.08 C424.55,585.31 423.19,583.94 421.59,583.05 C418.63,581.41 415.48,574.81 416.44,572.29 C416.73,571.53 415.30,570.17 412.97,568.98 C410.05,567.50 409.00,566.34 409.00,564.62 C409.00,563.33 407.43,560.31 405.51,557.89 C403.59,555.48 402.02,553.05 402.01,552.49 C402.00,551.53 398.61,548.94 397.47,549.03 C396.34,549.12 394.24,546.30 391.85,541.49 C390.48,538.74 388.27,535.94 386.93,535.26 C385.59,534.59 384.89,534.02 385.37,534.01 C385.85,534.01 385.69,533.33 385.01,532.51 C384.33,531.69 384.02,530.38 384.33,529.59 C385.06,527.67 382.82,525.88 381.06,526.96 C378.70,528.42 377.04,527.01 377.40,523.88 C377.81,520.41 376.69,519.50 372.00,519.50 C369.18,519.50 368.50,519.11 368.48,517.50 C368.46,516.40 368.84,514.66 369.32,513.63 C369.93,512.34 369.86,511.97 369.10,512.44 C368.47,512.83 368.00,512.40 368.00,511.44 C368.00,510.25 367.63,510.04 366.75,510.70 C365.10,511.95 360.79,512.15 361.54,510.94 C361.86,510.42 361.59,510.00 360.94,510.00 C360.04,510.00 360.05,509.65 360.96,508.54 C361.63,507.74 361.88,506.62 361.53,506.04 C361.17,505.46 361.72,505.00 362.78,505.00 C363.91,505.00 369.09,509.74 375.63,516.75 C402.00,545.03 419.67,569.52 434.72,598.64 C440.78,610.36 441.76,612.86 440.22,612.74 C439.19,612.66 437.90,612.11 437.34,611.52 ZM 702.88 596.69 C703.96,594.94 705.95,591.55 707.29,589.17 C709.65,585.01 709.77,584.94 710.37,587.35 C710.97,589.72 710.33,592.92 709.05,594.00 C708.72,594.28 707.73,595.64 706.85,597.03 C705.97,598.42 704.27,599.63 703.08,599.72 L 700.91 599.88 L 702.88 596.69 ZM 462.73 596.40 C462.33,595.99 462.00,594.98 462.00,594.13 C462.00,593.01 462.30,592.90 463.11,593.71 C463.72,594.32 464.05,595.34 463.84,595.97 C463.63,596.61 463.13,596.80 462.73,596.40 ZM 516.89 593.92 C516.68,589.26 517.20,586.66 518.64,585.22 C520.85,583.00 521.06,584.09 519.53,589.90 C517.91,596.03 517.05,597.35 516.89,593.92 ZM 461.18 590.39 C460.86,586.64 455.08,567.55 451.52,558.47 C449.61,553.60 448.28,549.38 448.58,549.09 C448.87,548.80 449.53,549.22 450.04,550.03 C450.85,551.32 450.98,551.31 451.02,550.00 C451.11,546.81 453.01,551.84 453.49,556.54 C453.75,559.13 454.46,561.85 455.07,562.58 C455.67,563.31 455.91,564.33 455.60,564.84 C455.28,565.35 455.69,566.33 456.51,567.01 C457.33,567.69 458.00,568.89 458.00,569.68 C458.00,570.47 458.45,570.84 459.00,570.50 C459.55,570.16 460.00,570.58 460.00,571.44 C460.00,572.30 460.50,573.00 461.12,573.00 C461.81,573.00 461.98,573.86 461.57,575.25 C460.32,579.46 460.26,580.50 461.19,581.67 C461.70,582.32 461.95,585.02 461.74,587.67 C461.53,590.33 461.28,591.55 461.18,590.39 ZM 269.72 587.95 C270.24,585.99 266.86,581.47 265.73,582.60 C265.47,582.86 265.42,581.64 265.63,579.87 C265.83,578.11 266.19,576.48 266.42,576.25 C266.65,576.02 268.43,579.02 270.39,582.92 L 273.94 590.00 L 271.57 590.00 C269.66,590.00 269.29,589.59 269.72,587.95 ZM 710.82 584.49 C710.54,584.21 712.26,579.15 714.64,573.24 C717.03,567.33 719.26,561.04 719.60,559.25 C720.28,555.69 721.43,555.06 722.44,557.70 C722.83,558.73 722.19,560.59 720.80,562.45 C719.16,564.63 718.45,567.06 718.30,571.00 C718.03,578.18 717.77,580.11 717.17,579.51 C716.90,579.23 716.05,579.91 715.28,581.01 C714.51,582.10 713.21,583.00 712.38,583.00 C711.56,583.00 711.16,583.45 711.50,584.00 C712.15,585.05 711.70,585.37 710.82,584.49 ZM 520.72 577.04 C520.43,575.92 520.65,574.72 521.22,574.36 C521.83,573.99 522.04,571.63 521.72,568.60 C521.24,563.93 521.45,563.21 524.10,560.57 C525.89,558.77 527.00,556.62 527.00,554.92 C527.00,553.40 527.49,552.00 528.08,551.81 C528.68,551.61 529.27,549.96 529.40,548.15 C529.63,544.84 531.59,542.63 533.34,543.71 C533.87,544.04 534.07,542.94 533.81,541.14 C533.55,539.41 533.65,538.00 534.01,538.00 C534.87,538.00 537.08,533.20 537.65,530.07 C538.28,526.69 538.84,526.00 540.97,526.00 C542.31,526.00 542.67,525.46 542.30,524.04 C542.01,522.91 542.68,520.95 543.89,519.41 C545.05,517.93 546.00,516.12 546.00,515.37 C546.00,514.61 546.48,514.00 547.06,514.00 C547.64,514.00 547.87,513.60 547.57,513.11 C547.27,512.63 547.74,511.63 548.62,510.90 C550.63,509.23 552.13,505.61 552.90,500.53 C553.41,497.15 553.86,496.56 556.00,496.53 C559.64,496.47 560.82,495.38 562.00,491.00 C562.58,488.85 563.70,486.51 564.49,485.80 C567.68,482.93 568.81,482.14 569.18,482.51 C569.40,482.73 570.15,481.98 570.86,480.85 C571.57,479.72 571.72,479.06 571.19,479.38 C570.65,479.72 570.31,478.58 570.40,476.76 C570.54,474.01 570.96,473.51 573.30,473.33 C575.08,473.19 575.81,473.50 575.37,474.21 C575.00,474.82 575.14,475.03 575.69,474.69 C576.24,474.35 576.73,472.73 576.78,471.10 C576.91,466.40 578.62,464.07 581.76,464.30 C584.24,464.48 584.47,464.21 584.22,461.48 C583.99,459.09 584.76,457.66 587.97,454.53 C590.19,452.37 592.00,450.12 592.00,449.55 C592.00,448.14 596.18,443.56 597.75,443.25 C598.44,443.11 599.56,442.89 600.25,442.75 C600.94,442.61 601.81,442.06 602.20,441.53 C602.58,440.99 603.22,440.89 603.62,441.29 C604.03,441.69 603.20,443.25 601.79,444.76 C597.28,449.58 577.97,474.17 570.71,484.34 C566.84,489.76 563.08,494.42 562.35,494.70 C561.61,494.98 561.26,495.60 561.55,496.09 C561.85,496.57 560.30,499.61 558.11,502.84 C546.16,520.44 532.69,547.43 525.96,567.26 C523.95,573.18 522.07,578.26 521.78,578.55 C521.49,578.84 521.01,578.16 520.72,577.04 ZM 262.65 574.51 C261.87,573.73 261.03,573.30 260.79,573.55 C260.54,573.80 260.30,573.44 260.26,572.75 C260.17,571.32 258.14,565.32 256.88,562.79 C255.80,560.61 256.95,551.82 258.26,552.25 C258.80,552.43 260.32,556.31 261.64,560.87 C262.95,565.43 264.69,570.43 265.49,571.98 C266.76,574.44 266.76,574.88 265.50,575.36 C264.71,575.67 263.42,575.28 262.65,574.51 ZM 324.18 545.92 C323.53,542.30 323.00,538.59 323.00,537.67 C323.00,535.91 324.99,535.81 326.23,537.50 C327.15,538.74 327.05,546.65 326.08,550.00 C325.48,552.04 325.13,551.29 324.18,545.92 ZM 579.82 546.07 C589.70,533.73 602.68,519.31 613.99,508.13 C627.11,495.15 648.76,476.42 649.63,477.29 C649.91,477.57 650.76,479.87 651.52,482.40 C652.72,486.39 652.71,487.00 651.45,487.00 C650.62,487.00 649.99,486.04 649.98,484.75 C649.97,482.93 649.78,482.79 649.00,484.00 C648.47,484.83 648.02,485.05 648.00,484.50 C647.98,483.95 647.57,484.13 647.08,484.91 C646.59,485.69 645.26,486.39 644.13,486.47 C641.42,486.67 638.00,489.84 638.00,492.15 C638.00,493.17 637.66,494.03 637.25,494.07 C630.30,494.73 628.30,495.34 626.83,497.27 C625.90,498.47 625.20,499.69 625.26,499.98 C625.54,501.37 621.25,507.02 619.21,507.95 C617.93,508.53 617.14,509.42 617.46,509.93 C617.77,510.44 617.12,511.14 616.01,511.50 C614.91,511.85 614.00,512.77 614.00,513.54 C614.00,514.32 612.76,515.60 611.25,516.39 C607.26,518.49 600.39,526.02 599.29,529.50 C598.70,531.36 596.95,533.29 594.66,534.58 C592.64,535.72 591.29,536.96 591.66,537.33 C592.03,537.70 591.88,538.00 591.33,538.00 C590.78,538.00 590.26,538.67 590.17,539.50 C590.08,540.33 589.92,541.66 589.83,542.46 C589.74,543.26 589.30,543.69 588.85,543.41 C587.36,542.49 583.85,545.12 582.89,547.90 C582.14,550.03 581.29,550.64 579.05,550.64 L 576.16 550.64 L 579.82 546.07 ZM 255.72 547.25 C253.62,544.93 253.52,542.64 255.44,541.05 C256.64,540.06 256.99,540.45 257.54,543.37 C258.45,548.23 257.82,549.57 255.72,547.25 ZM 446.60 544.50 C447.00,543.40 446.94,542.84 446.49,543.26 C446.03,543.67 442.43,537.82 438.50,530.26 C430.08,514.05 425.44,506.39 415.07,491.50 L 407.41 480.50 L 410.46 480.50 C414.43,480.50 416.22,481.73 415.51,483.98 C415.19,484.97 415.62,486.48 416.47,487.32 C417.31,488.17 418.00,489.29 418.00,489.82 C418.00,490.35 418.74,490.72 419.65,490.64 C421.36,490.50 422.40,492.94 423.84,500.50 C424.39,503.39 425.07,504.46 426.30,504.36 C427.24,504.28 428.00,504.65 428.00,505.17 C428.00,505.69 428.43,505.85 428.95,505.53 C429.47,505.21 430.45,506.87 431.13,509.22 C432.65,514.54 433.73,516.00 436.12,516.00 C437.75,516.00 438.00,516.80 438.00,522.06 C438.00,525.39 438.40,527.87 438.90,527.56 C439.84,526.98 441.24,529.46 441.40,532.00 C441.46,532.83 442.51,533.64 443.75,533.82 C445.23,534.03 446.06,534.89 446.17,536.32 C446.27,537.52 446.39,539.18 446.46,540.00 C446.52,540.83 446.95,542.10 447.40,542.84 C447.88,543.62 447.74,544.66 447.05,545.34 C446.16,546.22 446.05,546.03 446.60,544.50 ZM 723.00 543.00 C723.00,541.18 723.41,540.14 724.00,540.50 C724.55,540.84 725.00,541.96 725.00,543.00 C725.00,544.04 724.55,545.16 724.00,545.50 C723.41,545.86 723.00,544.82 723.00,543.00 ZM 254.25 536.30 C253.57,534.82 253.39,533.36 253.85,533.06 C254.32,532.75 254.96,531.83 255.27,531.00 C255.63,530.06 255.88,530.44 255.93,532.00 C255.99,533.38 256.30,535.51 256.63,536.75 C257.47,539.88 255.77,539.56 254.25,536.30 ZM 322.21 525.00 C322.20,517.77 322.34,517.08 323.11,520.35 C323.64,522.63 323.65,526.10 323.12,528.85 C322.30,533.12 322.22,532.81 322.21,525.00 ZM 323.05 511.25 C323.07,509.74 323.66,505.58 324.35,502.00 L 325.60 495.50 L 326.36 499.33 C326.87,501.87 326.72,503.64 325.91,504.61 C325.08,505.61 325.00,506.75 325.66,508.28 C326.89,511.12 326.26,514.00 324.43,514.00 C323.53,514.00 323.02,512.99 323.05,511.25 ZM 655.05 512.56 C654.13,511.45 654.14,510.61 655.09,508.84 C656.27,506.62 656.34,506.61 657.09,508.52 C658.88,513.12 657.61,515.64 655.05,512.56 ZM 655.00 504.44 C655.00,503.58 654.59,503.14 654.08,503.45 C653.01,504.11 651.86,499.42 652.39,496.50 C652.58,495.40 652.25,493.89 651.65,493.13 C650.80,492.06 650.98,491.85 652.49,492.14 C654.37,492.50 654.58,493.09 656.35,502.75 C656.69,504.60 656.53,506.00 655.97,506.00 C655.44,506.00 655.00,505.30 655.00,504.44 ZM 353.50 501.36 C352.68,500.53 352.00,498.76 352.00,497.43 C352.00,496.09 351.66,494.94 351.25,494.87 C350.84,494.80 349.46,494.64 348.18,494.51 C346.91,494.37 344.64,492.80 343.15,491.01 C339.68,486.85 333.54,486.00 329.56,489.13 C326.54,491.51 326.51,491.36 328.63,483.82 C330.42,477.43 331.64,476.78 335.75,480.02 C340.34,483.63 350.38,492.38 355.90,497.59 L 361.30 502.69 L 358.15 502.78 C356.42,502.83 354.33,502.19 353.50,501.36 ZM 255.61 500.17 C254.71,498.73 255.77,495.00 257.07,495.00 C258.16,495.00 258.17,496.71 257.10,499.43 C256.58,500.77 256.12,501.00 255.61,500.17 ZM 722.42 494.50 C721.93,490.65 721.61,486.48 721.70,485.23 C721.80,483.98 721.46,483.22 720.94,483.54 C720.42,483.86 719.99,483.53 719.99,482.81 C719.98,482.09 719.68,480.42 719.33,479.09 C718.88,477.41 719.03,476.90 719.84,477.40 C720.48,477.80 721.01,479.10 721.02,480.31 C721.03,482.13 721.21,482.25 722.10,481.00 C722.90,479.87 723.04,480.42 722.65,483.25 C722.36,485.31 722.46,487.00 722.86,487.00 C723.27,487.00 723.42,488.49 723.21,490.31 C722.96,492.48 723.37,494.06 724.41,494.93 C725.29,495.65 725.99,497.43 725.98,498.87 C725.97,500.74 725.72,501.10 725.11,500.14 C724.38,498.99 724.17,498.99 723.78,500.14 C723.52,500.89 722.91,498.35 722.42,494.50 ZM 258.15 479.55 C258.11,474.74 258.47,471.17 258.97,471.48 C260.25,472.27 261.49,469.88 261.15,467.27 C260.90,465.36 264.77,460.00 266.40,460.00 C266.67,460.00 266.08,462.36 265.09,465.25 C264.10,468.14 262.47,474.10 261.47,478.50 C260.47,482.90 259.33,486.88 258.93,487.34 C258.54,487.80 258.19,484.30 258.15,479.55 ZM 400.35 471.25 C397.14,466.99 390.36,458.44 385.27,452.25 C380.18,446.06 376.13,440.96 376.26,440.92 C376.39,440.87 377.55,440.72 378.84,440.58 C381.97,440.23 383.73,442.19 383.51,445.79 C383.36,448.29 383.71,448.75 385.70,448.75 C388.48,448.75 392.00,451.63 392.01,453.90 C392.01,454.78 393.38,456.28 395.05,457.23 C396.72,458.18 398.56,460.32 399.14,461.98 C399.72,463.64 400.60,465.00 401.10,465.00 C401.59,465.00 402.00,465.72 402.00,466.61 C402.00,467.61 402.55,468.00 403.47,467.65 C405.12,467.02 406.19,468.31 406.56,471.40 C406.70,472.56 407.13,474.29 407.52,475.25 C407.94,476.32 407.76,477.00 407.05,477.00 C406.41,477.00 406.16,477.45 406.50,478.00 C406.84,478.55 406.91,479.00 406.65,479.00 C406.39,479.00 403.55,475.51 400.35,471.25 ZM 715.61 465.75 C714.66,462.31 711.89,454.48 709.44,448.35 C707.00,442.22 705.00,436.89 705.00,436.52 C705.00,436.14 711.66,429.23 719.79,421.17 C742.00,399.14 756.99,379.52 769.07,356.66 C772.44,350.28 774.97,346.43 774.98,347.68 C774.99,348.88 774.31,350.54 773.47,351.38 C772.56,352.29 772.14,353.96 772.41,355.50 C772.78,357.52 772.35,358.34 770.46,359.20 C767.75,360.43 766.57,363.06 767.46,365.86 C767.79,366.91 767.41,368.24 766.58,368.93 C765.78,369.60 765.37,370.79 765.67,371.59 C766.29,373.21 764.20,376.24 762.98,375.49 C761.23,374.40 759.16,376.32 758.55,379.60 C758.19,381.50 757.53,382.83 757.08,382.55 C755.93,381.84 753.44,384.95 752.30,388.50 C751.77,390.15 750.37,391.99 749.18,392.59 C746.12,394.13 742.96,397.13 743.50,398.00 C744.06,398.91 740.95,406.97 740.12,406.74 C738.59,406.33 735.00,409.25 735.00,410.91 C735.00,412.60 732.19,415.89 731.33,415.21 C730.37,414.46 727.91,416.85 727.52,418.90 C726.98,421.69 725.07,424.16 723.98,423.49 C722.31,422.46 720.05,424.31 718.97,427.59 C718.35,429.46 717.32,431.07 716.67,431.15 C716.03,431.24 714.84,431.35 714.03,431.40 C711.75,431.56 709.92,435.98 711.16,438.31 C711.73,439.37 711.82,440.01 711.35,439.72 C710.88,439.43 710.50,441.13 710.50,443.50 C710.50,446.08 710.90,447.58 711.50,447.24 C712.05,446.93 712.20,447.02 711.83,447.43 C711.46,447.84 712.24,450.23 713.58,452.74 C714.91,455.25 716.00,457.92 716.00,458.68 C716.00,459.45 716.68,461.11 717.51,462.38 C718.92,464.52 719.23,471.99 717.91,472.00 C717.59,472.00 716.55,469.19 715.61,465.75 ZM 265.76 457.21 C265.15,454.85 267.23,448.51 269.41,446.10 C270.29,445.13 270.70,444.04 270.34,443.67 C269.97,443.30 270.18,443.00 270.80,443.00 C271.45,443.00 271.66,442.29 271.30,441.34 C270.82,440.08 271.01,439.89 272.08,440.55 C274.55,442.07 269.99,435.85 264.52,430.23 C261.70,427.33 257.85,424.13 255.96,423.12 C254.08,422.11 252.31,420.36 252.02,419.23 C251.43,416.92 242.60,407.00 241.13,407.00 C240.61,407.00 240.30,405.89 240.45,404.53 C240.60,403.17 240.37,402.27 239.94,402.53 C238.70,403.30 233.04,397.07 233.61,395.57 C234.22,393.99 230.15,390.79 228.68,391.70 C228.14,392.03 227.99,391.83 228.35,391.24 C228.72,390.65 228.50,390.00 227.88,389.79 C227.26,389.59 226.75,388.21 226.75,386.73 C226.75,385.25 226.38,384.26 225.94,384.54 C225.49,384.82 225.19,384.13 225.27,383.02 C225.36,381.91 225.69,381.00 226.02,381.00 C226.80,381.00 232.97,389.77 233.27,391.31 C233.40,391.96 233.99,392.73 234.58,393.00 C235.18,393.27 238.50,396.88 241.97,401.00 C245.43,405.12 254.57,414.69 262.26,422.25 L 276.25 436.00 L 273.73 441.75 C272.34,444.91 270.71,447.39 270.10,447.25 C269.50,447.11 269.00,447.45 269.00,448.00 C269.00,448.55 269.45,449.00 269.99,449.00 C270.55,449.00 270.26,450.88 269.34,453.25 C267.25,458.67 266.39,459.61 265.76,457.21 ZM 366.38 429.75 C361.50,424.07 349.23,409.99 339.12,398.46 C282.52,333.90 259.93,300.79 246.01,262.00 C243.94,256.23 241.91,249.93 241.50,248.00 L 240.75 244.50 L 242.86 246.39 C244.01,247.43 245.29,249.90 245.69,251.89 C246.08,253.87 246.46,255.73 246.53,256.00 C246.60,256.27 247.01,258.19 247.44,260.26 C247.87,262.33 248.63,264.27 249.11,264.57 C249.60,264.87 250.00,265.94 250.00,266.94 C250.00,267.95 250.90,269.00 252.00,269.29 C253.10,269.58 254.00,270.64 254.01,271.66 C254.02,275.10 256.01,280.70 258.06,283.07 C259.78,285.06 260.27,285.20 261.07,283.97 C261.77,282.89 262.02,283.42 262.00,286.00 C261.97,291.30 262.25,293.00 263.17,293.00 C263.62,293.00 264.00,293.84 264.00,294.88 C264.00,295.91 264.67,297.32 265.50,298.00 C266.33,298.68 267.00,299.85 267.00,300.59 C267.00,301.33 267.90,302.41 269.00,303.00 C270.10,303.59 271.00,304.97 271.00,306.07 C271.00,309.46 273.85,312.84 276.47,312.55 C278.22,312.36 278.67,312.68 278.24,313.81 C277.83,314.88 278.05,315.09 278.98,314.51 C279.92,313.93 280.07,314.07 279.51,314.99 C278.28,316.98 277.88,322.20 279.01,321.50 C280.12,320.80 286.83,327.57 287.16,329.73 C287.29,330.58 291.74,336.69 293.81,338.88 C294.53,339.64 294.92,340.76 294.68,341.38 C294.23,342.56 296.45,345.21 297.23,344.43 C298.07,343.60 301.27,347.94 301.51,350.23 C301.90,354.03 301.96,354.14 303.15,353.40 C303.84,352.98 304.04,353.13 303.65,353.76 C302.81,355.11 310.51,361.79 313.37,362.20 C314.72,362.39 315.62,363.35 315.83,364.83 C316.01,366.11 316.91,367.95 317.83,368.91 C319.67,370.84 324.66,376.61 327.00,379.52 C328.33,381.18 328.33,381.29 327.00,380.55 C326.17,380.10 326.43,380.71 327.58,381.91 C328.72,383.12 330.97,384.24 332.58,384.41 C335.17,384.69 335.50,385.11 335.50,388.10 C335.50,390.68 335.97,391.55 337.50,391.83 C340.24,392.34 344.06,396.02 343.75,397.87 C343.61,398.71 344.59,399.95 345.93,400.63 C347.27,401.31 348.47,402.62 348.61,403.54 C349.01,406.24 353.15,410.00 355.74,410.00 C357.55,410.00 358.05,410.47 357.81,411.96 C357.61,413.25 359.15,415.48 362.31,418.46 C364.95,420.96 366.84,423.46 366.50,424.01 C366.16,424.55 366.39,425.00 367.00,425.00 C367.61,425.00 367.88,425.38 367.60,425.84 C366.87,427.01 373.45,433.21 374.41,432.27 C374.84,431.85 375.06,432.17 374.90,433.00 C374.74,433.83 374.96,435.55 375.40,436.83 C375.83,438.10 375.98,439.36 375.73,439.61 C375.47,439.86 371.27,435.42 366.38,429.75 ZM 602.57 438.43 C601.71,437.56 601.00,436.49 601.00,436.05 C601.00,434.82 603.60,432.93 604.32,433.65 C605.29,434.62 608.00,431.97 608.00,430.05 C608.00,427.91 612.08,424.00 614.31,424.00 C615.89,424.00 616.55,421.79 616.05,418.15 C615.95,417.41 616.35,417.10 616.93,417.46 C617.52,417.82 618.00,417.57 618.00,416.89 C618.00,416.22 618.26,415.93 618.59,416.25 C619.79,417.45 624.58,414.91 624.76,412.98 C625.17,408.69 625.36,408.11 626.18,408.61 C627.49,409.42 636.91,399.02 639.61,393.77 C641.49,390.10 645.58,385.91 646.44,386.77 C646.75,387.08 647.00,386.87 647.00,386.30 C647.00,385.74 648.24,384.01 649.75,382.46 C651.26,380.92 651.94,379.98 651.25,380.39 C650.47,380.84 650.00,380.53 650.00,379.56 C650.00,378.69 650.85,378.00 651.92,378.00 C655.58,378.00 657.00,376.84 657.00,373.84 C657.00,371.42 657.62,370.64 660.50,369.44 C662.42,368.63 664.03,367.64 664.08,367.24 C664.35,364.56 665.00,362.60 665.92,361.68 C667.12,360.48 671.15,359.95 670.44,361.09 C670.19,361.51 670.64,362.00 671.45,362.17 C672.40,362.38 666.15,370.31 653.83,384.50 C643.33,396.60 628.20,414.04 620.21,423.25 C612.22,432.46 605.33,440.00 604.91,440.00 C604.49,440.00 603.44,439.29 602.57,438.43 ZM 220.10 378.47 C218.40,376.52 216.94,374.05 216.88,372.97 C216.81,371.88 216.64,370.55 216.50,370.00 C216.36,369.45 216.19,368.64 216.12,368.19 C216.06,367.75 214.54,367.41 212.75,367.44 C209.21,367.50 209.21,367.52 208.60,357.06 C208.45,354.61 207.81,352.44 207.16,352.22 C206.52,352.01 206.24,351.42 206.55,350.91 C206.86,350.41 206.64,350.00 206.06,350.00 C205.48,350.00 205.00,349.55 205.00,349.00 C205.00,348.45 205.56,348.00 206.25,348.01 C206.94,348.01 209.07,351.24 211.00,355.20 C212.93,359.15 216.86,366.17 219.75,370.80 C222.64,375.43 225.00,379.44 225.00,379.71 C225.00,379.99 224.26,379.93 223.36,379.58 C221.99,379.06 221.92,379.20 222.98,380.48 C225.58,383.60 223.09,381.86 220.10,378.47 ZM 672.71 357.12 C672.93,355.68 673.16,353.96 673.22,353.29 C673.28,352.63 673.67,352.29 674.08,352.55 C675.29,353.30 678.00,351.89 678.00,350.52 C678.00,349.82 678.70,348.67 679.55,347.96 C680.40,347.26 680.88,346.12 680.61,345.43 C680.35,344.75 682.26,342.36 684.85,340.13 C687.93,337.47 689.63,335.18 689.77,333.47 C690.00,330.69 692.33,327.67 693.42,328.75 C693.78,329.11 695.15,328.24 696.48,326.81 C697.80,325.38 698.66,323.99 698.39,323.72 C698.12,323.45 698.94,322.39 700.21,321.36 C701.48,320.34 703.37,317.60 704.40,315.28 C705.43,312.95 706.67,311.29 707.14,311.59 C707.61,311.88 708.00,311.05 708.00,309.75 C708.00,308.41 709.32,306.11 711.01,304.49 C712.67,302.90 713.94,300.69 713.85,299.56 C713.38,293.59 714.03,289.80 715.45,290.34 C716.24,290.65 717.93,289.82 719.20,288.50 C721.67,285.93 721.69,285.87 721.88,280.33 C721.94,278.32 722.25,276.92 722.56,277.23 C723.22,277.89 727.51,274.05 728.10,272.28 C728.34,271.56 729.03,271.39 729.80,271.87 C731.58,272.98 719.83,296.24 708.73,313.59 C701.29,325.22 683.92,349.17 680.24,352.89 C679.48,353.65 678.20,355.30 677.38,356.54 C676.57,357.78 675.10,359.00 674.11,359.26 C672.64,359.64 672.38,359.24 672.71,357.12 ZM 201.75 346.34 C202.73,345.94 202.69,345.40 201.61,343.85 C200.21,341.85 200.52,338.00 202.08,338.00 C202.55,338.00 203.56,339.19 204.33,340.65 C205.54,342.97 205.51,343.55 204.14,345.15 C203.27,346.17 202.09,346.96 201.53,346.92 C200.96,346.88 201.06,346.62 201.75,346.34 ZM 775.04 344.63 C775.06,344.56 776.81,339.55 778.92,333.50 L 782.76 322.50 L 782.40 331.00 C782.20,335.67 782.03,339.97 782.02,340.54 C782.01,341.11 780.42,342.30 778.50,343.17 C776.58,344.04 775.02,344.70 775.04,344.63 ZM 200.52 335.05 C200.18,333.98 199.02,332.82 197.95,332.48 C196.88,332.14 195.99,331.11 195.98,330.18 C195.97,328.73 195.84,328.71 195.00,330.00 C193.84,331.80 193.82,330.88 194.91,325.25 C195.40,322.72 195.36,321.00 194.81,321.00 C194.30,321.00 194.16,320.55 194.50,320.00 C194.84,319.45 194.59,319.00 193.94,319.00 C193.03,319.00 193.04,318.66 193.95,317.56 C194.75,316.60 194.83,315.53 194.20,314.31 C193.68,313.32 193.59,311.60 194.01,310.50 C194.69,308.72 194.85,308.83 195.49,311.50 C198.47,323.94 199.34,327.12 201.04,331.75 C202.10,334.64 202.56,337.00 202.05,337.00 C201.55,337.00 200.86,336.12 200.52,335.05 ZM 783.44 318.49 C785.18,311.73 786.94,300.10 787.14,294.00 C787.30,288.94 787.43,288.45 787.73,291.77 C787.94,294.12 788.43,295.85 788.81,295.62 C789.19,295.39 789.63,299.69 789.79,305.18 C789.99,311.91 789.74,314.96 789.04,314.53 C788.45,314.16 788.00,314.77 788.00,315.94 C788.00,317.07 787.58,318.00 787.07,318.00 C786.56,318.00 785.36,318.78 784.40,319.74 C782.75,321.39 782.70,321.33 783.44,318.49 ZM 787.17 275.88 C787.08,272.79 786.31,266.32 785.47,261.49 C784.63,256.67 784.15,252.52 784.40,252.27 C784.65,252.02 785.67,252.28 786.67,252.84 C787.91,253.53 788.53,255.10 788.60,257.68 C788.65,259.78 789.00,264.31 789.37,267.75 C789.77,271.53 789.65,274.00 789.08,274.00 C788.55,274.00 787.94,275.69 787.73,277.75 C787.43,280.61 787.30,280.16 787.17,275.88 ZM 730.68 268.35 C729.30,266.96 730.06,262.53 732.25,259.32 C735.89,253.97 737.19,255.13 734.92,261.72 C732.83,267.82 731.78,269.45 730.68,268.35 ZM 194.64 250.50 C194.01,248.85 194.81,246.00 195.91,246.00 C196.29,246.00 196.45,244.54 196.27,242.75 C196.01,240.18 196.49,239.11 198.54,237.65 C199.97,236.64 201.25,235.96 201.40,236.15 C201.92,236.85 196.76,252.00 196.00,252.00 C195.57,252.00 194.95,251.32 194.64,250.50 ZM 779.43 238.72 C777.74,233.65 776.00,228.71 775.57,227.75 C774.96,226.38 775.26,226.00 776.95,226.00 C778.14,226.00 778.84,226.45 778.50,227.00 C778.16,227.55 778.36,228.00 778.94,228.00 C779.52,228.00 780.00,229.32 780.00,230.93 C780.00,232.54 780.63,234.49 781.40,235.25 C782.68,236.54 784.13,248.04 783.00,247.97 C782.72,247.95 781.12,243.79 779.43,238.72 ZM 739.60 235.80 C738.85,230.84 739.80,222.76 741.04,223.52 C741.47,223.79 742.03,223.45 742.28,222.76 C742.52,222.07 743.03,221.78 743.39,222.12 C744.13,222.79 742.14,236.67 740.99,238.89 C740.55,239.74 740.01,238.55 739.60,235.80 ZM 201.39 230.42 C201.73,229.55 202.00,228.40 202.00,227.86 C202.00,227.32 202.44,227.16 202.99,227.49 C203.54,227.83 203.73,227.47 203.43,226.68 C203.13,225.90 203.55,224.60 204.35,223.79 C205.26,222.88 205.50,221.81 204.98,220.96 C203.86,219.15 204.67,218.00 207.06,218.00 C209.51,218.00 209.50,218.03 206.50,224.59 C205.12,227.60 204.00,230.50 204.00,231.03 C204.00,231.56 203.28,232.00 202.39,232.00 C201.34,232.00 200.99,231.46 201.39,230.42 ZM 770.63 217.26 C764.72,205.09 745.28,178.43 743.55,180.13 C743.20,180.47 743.42,186.77 744.05,194.12 C744.67,201.47 744.87,210.41 744.48,213.99 L 743.78 220.50 L 742.57 217.00 C741.86,214.91 741.70,212.57 742.19,211.18 C743.28,208.07 743.22,201.25 742.10,200.56 C741.60,200.25 741.41,198.09 741.67,195.75 C742.04,192.57 741.89,191.88 741.09,193.00 C740.27,194.17 740.03,193.67 740.02,190.72 C740.01,188.64 739.36,185.41 738.58,183.55 C736.55,178.68 738.25,176.68 744.63,176.44 C750.50,176.22 751.30,176.58 750.04,178.92 C748.73,181.37 751.98,184.84 755.25,184.48 C756.58,184.33 757.72,184.73 757.78,185.36 C757.88,186.42 758.38,189.07 759.25,193.26 C759.45,194.22 761.01,196.47 762.72,198.26 C765.50,201.17 768.47,208.20 767.38,209.29 C767.14,209.53 769.01,211.56 771.53,213.82 C775.88,217.71 776.04,218.04 774.77,220.47 L 773.43 223.03 L 770.63 217.26 ZM 236.23 205.50 C236.19,196.78 236.48,192.53 236.99,194.22 C237.44,195.71 237.47,202.01 237.05,208.22 L 236.29 219.50 L 236.23 205.50 ZM 208.88 213.75 C208.74,212.31 208.75,212.25 209.51,207.92 C210.31,203.40 210.82,202.84 213.82,203.19 C216.34,203.49 216.45,203.29 216.48,198.74 C216.50,194.88 216.88,193.84 218.50,193.29 C220.67,192.54 221.51,192.32 222.90,192.12 C223.40,192.06 224.21,190.31 224.71,188.25 C225.35,185.61 226.10,184.58 227.25,184.78 C228.28,184.96 229.50,183.75 230.56,181.51 C232.52,177.38 233.55,176.58 237.11,176.42 C239.19,176.32 239.67,176.72 239.48,178.40 C239.07,182.20 238.87,182.52 238.11,180.59 C237.47,178.96 236.47,179.74 231.15,186.06 C224.77,193.64 218.04,203.26 213.86,210.74 C211.58,214.84 209.13,216.32 208.88,213.75 Z" fill="rgb(248,248,248)"/>
</g>
</svg>